<?xml version="1.0" standalone="no"?>
<!DOCTYPE svg PUBLIC "-//W3C//DTD SVG 20010904//EN"
 "http://www.w3.org/TR/2001/REC-SVG-20010904/DTD/svg10.dtd">
<svg version="1.0" xmlns="http://www.w3.org/2000/svg"
 width="500.000000pt" height="381.000000pt" viewBox="0 0 500.000000 381.000000"
 preserveAspectRatio="xMidYMid meet">

<g transform="translate(0.000000,381.000000) scale(0.100000,-0.100000)"
fill="#000000" stroke="none">
<path d="M2285 3034 c-83 -17 -98 -24 -190 -85 -95 -63 -177 -147 -210 -216
-37 -77 -45 -185 -20 -277 33 -120 10 -193 -113 -374 -33 -48 -42 -70 -40 -94
3 -33 12 -40 103 -80 29 -13 30 -15 41 -123 22 -195 48 -286 97 -333 39 -37
82 -49 210 -62 140 -14 160 -25 186 -108 30 -98 46 -263 45 -470 -1 -142 1
-182 11 -182 17 0 30 234 21 357 -11 135 -44 323 -64 356 -32 55 -57 66 -199
81 -162 18 -194 33 -224 106 -21 51 -49 206 -49 274 0 91 -13 115 -75 140 -92
38 -92 39 -29 133 55 82 94 154 113 208 18 49 17 135 -1 167 -8 15 -13 57 -12
123 0 95 2 104 33 158 45 79 164 187 263 238 54 27 167 49 256 49 70 -1 203
-27 220 -45 8 -8 -26 -35 -45 -35 -7 0 -13 -7 -13 -15 0 -8 6 -15 14 -15 20 0
126 48 126 57 0 5 -29 20 -64 35 -112 48 -256 60 -391 32z"/>
<path d="M2855 3009 c-85 -20 -86 -34 -3 -30 56 2 92 16 83 32 -7 11 -25 10
-80 -2z"/>
<path d="M3002 3008 c3 -9 31 -14 81 -16 64 -2 77 0 77 13 0 12 -15 15 -81 15
-60 0 -80 -3 -77 -12z"/>
<path d="M3230 2986 c0 -7 24 -22 53 -34 28 -11 60 -23 70 -27 26 -11 22 19
-5 33 -35 17 -99 42 -109 42 -5 0 -9 -6 -9 -14z"/>
<path d="M3420 2893 c0 -13 13 -27 57 -60 58 -45 84 -43 45 3 -33 40 -102 79
-102 57z"/>
<path d="M2514 2868 c-62 -47 -91 -88 -61 -88 14 1 107 87 107 101 0 15 -15
11 -46 -13z"/>
<path d="M3570 2761 c0 -19 63 -110 72 -105 12 8 0 43 -30 82 -24 31 -42 41
-42 23z"/>
<path d="M2376 2714 c-32 -49 -44 -94 -25 -94 20 0 75 108 61 122 -7 7 -18 -1
-36 -28z"/>
<path d="M3655 2583 c5 -16 11 -46 14 -67 8 -50 31 -61 31 -14 0 52 -19 108
-37 108 -12 0 -14 -6 -8 -27z"/>
<path d="M2320 2554 c-6 -14 -10 -45 -10 -70 0 -37 3 -44 20 -44 18 0 20 7 20
70 0 72 -13 91 -30 44z"/>
<path d="M3690 2366 c0 -63 12 -88 32 -68 13 13 -3 124 -19 130 -10 3 -13 -14
-13 -62z"/>
<path d="M2326 2392 c-3 -5 -3 -39 1 -76 8 -86 28 -84 27 3 -1 59 -14 95 -28
73z"/>
<path d="M3672 2187 c-15 -64 -15 -77 -2 -77 13 0 28 38 36 91 5 30 3 39 -7
39 -9 0 -19 -20 -27 -53z"/>
<path d="M2286 2164 c-28 -50 -33 -78 -13 -72 19 7 57 69 57 94 0 37 -16 29
-44 -22z"/>
<path d="M3611 2014 c-31 -49 -38 -74 -22 -74 21 0 76 99 62 113 -6 6 -20 -7
-40 -39z"/>
<path d="M2191 2021 c-34 -47 -24 -91 19 -91 5 0 6 15 3 33 -3 23 0 37 11 46
9 7 16 20 16 27 0 24 -28 15 -49 -15z"/>
<path d="M2266 1921 c-3 -5 5 -16 19 -25 14 -9 25 -23 25 -32 0 -9 6 -14 13
-11 17 6 10 49 -10 65 -20 14 -40 16 -47 3z"/>
<path d="M3513 1854 c-36 -48 -40 -64 -20 -64 14 0 77 81 77 99 0 24 -27 8
-57 -35z"/>
<path d="M2316 1812 c-6 -10 10 -112 19 -121 15 -14 23 20 17 68 -7 51 -23 74
-36 53z"/>
<path d="M3397 1708 c-39 -44 -45 -58 -25 -58 12 0 87 79 88 93 0 20 -30 3
-63 -35z"/>
<path d="M2337 1644 c-9 -9 -9 -87 -1 -108 3 -9 13 -16 21 -16 11 0 13 13 11
62 -3 57 -14 79 -31 62z"/>
<path d="M3302 1575 c-15 -31 -16 -105 -2 -105 5 0 12 12 15 28 3 15 10 40 15
56 16 48 -8 65 -28 21z"/>
<path d="M2570 1484 c-19 -19 -40 -34 -47 -34 -28 0 -13 -40 21 -54 18 -7 43
-28 55 -45 36 -50 51 -38 26 21 -6 14 2 22 36 37 43 18 79 51 79 71 0 15 -5
13 -52 -20 -45 -30 -118 -50 -118 -32 0 6 14 24 30 40 17 17 30 35 30 41 0 19
-24 9 -60 -25z"/>
<path d="M1552 1483 c2 -9 20 -25 41 -36 20 -10 37 -23 37 -28 0 -5 -96 -10
-217 -10 -120 -1 -254 -3 -298 -5 -44 -2 -88 -3 -97 -4 -10 0 -18 -7 -18 -15
0 -14 34 -15 298 -10 163 4 309 8 325 10 18 2 27 -1 27 -11 0 -8 -7 -14 -15
-14 -8 0 -15 -4 -15 -8 0 -5 -11 -15 -25 -22 -27 -14 -34 -40 -11 -40 7 0 19
7 27 16 16 20 91 58 147 74 48 15 55 37 15 46 -78 17 -174 48 -184 60 -16 19
-41 17 -37 -3z"/>
<path d="M2370 1466 c0 -15 55 -66 70 -66 15 0 24 24 11 28 -7 2 -23 15 -34
28 -23 27 -47 32 -47 10z"/>
<path d="M3276 1408 c-19 -61 -8 -142 14 -108 13 20 13 120 0 120 -6 0 -12 -6
-14 -12z"/>
<path d="M2647 1218 c9 -100 34 -110 34 -14 0 60 -5 76 -26 76 -10 0 -12 -14
-8 -62z"/>
<path d="M3262 1180 c5 -64 20 -92 39 -73 8 8 8 17 0 31 -6 11 -11 39 -11 61
0 31 -4 41 -16 41 -14 0 -16 -10 -12 -60z"/>
<path d="M2634 1065 c-20 -48 -22 -80 -5 -80 12 0 40 70 41 103 0 25 -21 11
-36 -23z"/>
<path d="M3320 1060 c0 -13 62 -100 71 -100 22 0 17 25 -12 65 -30 41 -59 59
-59 35z"/>
<path d="M2576 883 c-9 -26 -16 -55 -16 -66 0 -35 23 -11 41 44 22 66 23 69 5
69 -8 0 -21 -21 -30 -47z"/>
<path d="M3426 922 c-10 -17 46 -112 67 -112 22 0 22 2 -8 47 -46 71 -51 77
-59 65z"/>
<path d="M3510 757 c0 -33 50 -152 64 -155 9 -2 16 0 16 5 -1 12 -44 136 -53
151 -11 16 -27 15 -27 -1z"/>
<path d="M2529 718 c-15 -55 -17 -102 -4 -106 11 -3 32 74 34 121 2 41 -17 32
-30 -15z"/>
</g>
</svg>
