<?xml version="1.0" standalone="no"?>
<!DOCTYPE svg PUBLIC "-//W3C//DTD SVG 20010904//EN"
 "http://www.w3.org/TR/2001/REC-SVG-20010904/DTD/svg10.dtd">
<svg version="1.0" xmlns="http://www.w3.org/2000/svg"
 width="500.000000pt" height="515.000000pt" viewBox="0 0 500.000000 515.000000"
 preserveAspectRatio="xMidYMid meet">

<g transform="translate(0.000000,515.000000) scale(0.100000,-0.100000)"
fill="#000000" stroke="none">
<path d="M2634 4711 c-73 -19 -132 -70 -165 -146 -33 -74 -33 -269 -1 -373 25
-79 41 -95 111 -111 24 -5 48 -14 53 -19 12 -12 -15 -98 -52 -167 -43 -79 -67
-155 -75 -228 -5 -49 -11 -65 -18 -58 -22 22 -30 10 -9 -12 18 -19 23 -42 32
-172 14 -172 14 -174 35 -315 8 -58 18 -132 22 -165 6 -55 5 -59 -10 -46 -24
19 -21 -2 3 -24 14 -13 20 -31 20 -60 0 -53 -21 -73 -125 -119 -44 -19 -142
-62 -218 -95 -75 -34 -142 -61 -148 -61 -5 0 -27 -9 -47 -19 -20 -10 -64 -22
-97 -26 -66 -8 -124 -33 -171 -75 -19 -17 -68 -38 -120 -55 -195 -59 -282 -88
-344 -115 -36 -16 -93 -32 -127 -35 l-62 -7 -65 57 c-36 31 -91 88 -122 126
-41 50 -63 69 -80 69 -20 0 -24 -5 -24 -29 0 -24 52 -130 105 -215 7 -12 16
-52 19 -90 11 -112 39 -156 98 -156 13 0 59 16 103 36 125 55 191 74 263 74
40 0 62 -4 57 -9 -6 -5 -73 -42 -150 -81 -77 -40 -210 -109 -295 -153 -254
-132 -240 -127 -320 -110 -112 23 -162 34 -254 54 -101 22 -126 23 -126 9 0
-5 8 -10 17 -10 16 0 165 -31 332 -70 68 -15 106 -39 89 -55 -3 -4 -101 14
-218 40 -185 41 -237 48 -219 30 5 -5 78 -21 239 -55 52 -11 111 -23 130 -28
l35 -8 6 -84 c3 -47 7 -170 8 -275 2 -104 4 -203 5 -220 2 -16 4 -78 4 -137 1
-73 6 -108 13 -108 9 0 10 39 6 142 -4 79 -10 260 -13 403 l-7 260 29 12 c16
6 79 38 139 70 168 90 307 164 450 238 145 76 255 135 330 176 138 77 115 73
400 81 185 5 290 13 365 26 58 11 108 18 111 16 3 -2 11 -36 19 -76 13 -77 50
-179 100 -278 17 -33 30 -67 30 -77 0 -10 11 -54 24 -98 13 -44 40 -154 59
-245 19 -91 54 -228 78 -305 54 -174 55 -203 9 -251 -53 -54 -180 -141 -242
-164 -60 -22 -76 -41 -52 -61 11 -9 33 -9 102 2 48 7 148 14 222 14 135 1 161
7 203 43 23 20 22 48 -9 139 l-25 78 17 181 c18 179 18 183 -3 285 -11 57 -34
137 -52 177 l-32 73 7 237 c5 195 4 257 -10 348 -18 123 -18 123 39 241 l30
62 49 1 c58 0 136 34 136 58 0 10 -9 32 -21 51 -11 19 -21 49 -22 68 -1 18 -6
33 -12 33 -5 0 -25 23 -44 51 -27 40 -32 54 -24 68 7 12 7 20 -2 28 -6 6 -15
48 -19 94 -10 136 -61 293 -112 350 -11 12 -13 37 -8 120 11 168 -21 343 -96
541 -44 115 -41 152 20 241 46 65 52 79 59 147 14 126 -27 215 -125 271 -49
28 -69 33 -133 35 -42 2 -90 -1 -107 -5z m188 -31 c64 -25 97 -52 131 -111 34
-58 41 -105 27 -172 -10 -48 -28 -84 -93 -176 -27 -39 -18 -135 23 -236 56
-141 71 -215 76 -385 l4 -155 -38 110 c-40 113 -94 229 -112 240 -16 10 -12
-17 8 -50 32 -53 81 -187 112 -307 17 -64 41 -136 55 -160 29 -53 71 -211 89
-338 23 -159 39 -201 97 -250 65 -54 64 -78 -4 -99 -77 -24 -96 -11 -118 79
-11 41 -33 97 -49 123 -17 27 -27 53 -24 59 4 6 2 8 -4 4 -19 -11 -110 190
-123 274 -9 50 -20 83 -35 100 -12 14 -33 44 -47 66 -33 54 -137 296 -173 402
-15 45 -31 82 -36 82 -12 0 -11 -6 17 -95 19 -60 22 -81 13 -87 -9 -5 -5 -15
14 -35 28 -30 99 -175 101 -208 0 -11 13 -35 29 -53 40 -47 75 -119 99 -209
12 -43 30 -95 40 -115 22 -43 24 -62 7 -53 -7 4 -2 -2 11 -13 57 -46 127 -187
143 -286 11 -69 10 -73 -18 -125 -16 -30 -35 -63 -42 -75 -14 -23 -10 -164 7
-208 13 -36 14 -264 1 -395 -13 -129 -14 -127 55 -291 37 -88 46 -190 32 -347
-16 -184 -14 -250 10 -335 14 -49 18 -81 12 -92 -15 -27 -68 -38 -184 -37 -61
0 -150 -7 -199 -15 -104 -19 -106 -19 -106 -6 0 5 17 14 38 19 78 22 254 158
283 220 19 40 19 46 6 80 -16 40 -76 240 -102 341 -10 36 -25 115 -35 175 -10
61 -27 133 -38 160 -11 28 -23 69 -27 93 -4 24 -27 86 -51 137 -98 211 -122
368 -103 686 12 199 12 213 -9 341 -12 73 -24 159 -26 190 -2 31 -7 61 -10 67
-13 20 -33 387 -25 461 8 85 12 98 75 225 73 150 69 198 -19 212 -59 9 -82 37
-103 123 -37 151 -11 341 54 403 36 35 124 66 184 67 26 0 71 -9 100 -20z
m372 -1922 c9 -17 14 -33 12 -36 -8 -7 -27 9 -21 18 3 4 -2 10 -10 14 -8 3
-15 15 -15 26 0 27 15 18 34 -22z m-618 -258 l-1 -231 -50 -14 c-99 -28 -194
-37 -430 -39 -224 -1 -243 -3 -288 -23 -26 -12 -60 -31 -75 -41 -57 -40 -119
-52 -263 -52 -127 0 -144 -2 -217 -29 -44 -16 -97 -39 -118 -50 -52 -28 -115
-28 -132 0 -7 11 -17 59 -23 106 -8 71 -15 93 -39 127 -17 22 -30 46 -30 54 0
7 -11 28 -24 45 -25 34 -42 87 -28 87 5 0 29 -26 54 -57 53 -68 128 -142 181
-180 36 -26 40 -26 94 -15 30 6 101 29 157 51 55 22 164 59 241 82 144 43 205
67 205 80 0 15 86 57 130 64 48 7 169 43 185 55 6 4 21 11 35 15 14 4 52 20
85 35 33 15 94 42 135 59 41 18 107 48 145 67 39 18 70 34 71 34 1 0 1 -104 0
-230z m-997 -434 c-2 -1 -53 -29 -114 -61 -307 -161 -433 -228 -465 -245 -114
-63 -200 -103 -206 -98 -15 16 9 40 73 71 37 18 142 71 233 119 338 176 424
218 454 218 16 0 27 -2 25 -4z"/>
<path d="M2550 3671 c10 -21 30 -37 30 -26 0 14 -21 45 -31 45 -6 0 -6 -7 1
-19z"/>
<path d="M2565 3510 c10 -11 20 -18 23 -16 5 6 -23 36 -34 36 -4 0 1 -9 11
-20z"/>
<path d="M2648 3424 c13 -25 42 -50 42 -37 0 5 -12 20 -26 34 -24 21 -26 22
-16 3z"/>
<path d="M2610 3157 c0 -3 12 -12 26 -22 15 -9 23 -12 20 -6 -7 11 -46 35 -46
28z"/>
<path d="M2920 3130 c6 -11 16 -20 22 -20 6 0 3 9 -7 20 -10 11 -20 20 -22 20
-2 0 1 -9 7 -20z"/>
<path d="M2724 3051 c11 -11 23 -21 28 -21 14 0 -1 19 -25 31 -22 12 -22 12
-3 -10z"/>
<path d="M2982 3040 c13 -20 28 -27 28 -12 0 10 -22 32 -32 32 -5 0 -3 -9 4
-20z"/>
<path d="M2824 2975 c11 -8 22 -12 25 -9 6 6 -19 24 -34 24 -5 -1 -1 -7 9 -15z"/>
<path d="M3042 2970 c7 -11 17 -20 22 -20 5 0 1 9 -9 20 -10 11 -20 20 -22 20
-2 0 2 -9 9 -20z"/>
<path d="M3080 2812 c0 -12 19 -26 26 -19 2 2 -2 10 -11 17 -9 8 -15 8 -15 2z"/>
<path d="M1935 4490 c-4 -6 8 -10 29 -10 20 0 36 5 36 10 0 6 -13 10 -29 10
-17 0 -33 -4 -36 -10z"/>
<path d="M2054 4465 c11 -8 27 -15 35 -15 13 1 12 4 -3 15 -11 8 -27 15 -35
15 -13 -1 -12 -4 3 -15z"/>
<path d="M1828 4452 c-40 -24 -35 -35 7 -15 19 9 35 20 35 25 0 12 -12 9 -42
-10z"/>
<path d="M2130 4412 c0 -5 9 -17 20 -27 22 -20 26 -9 6 18 -14 18 -26 22 -26
9z"/>
<path d="M1728 4383 c-8 -10 -18 -24 -22 -30 -12 -22 18 -4 37 22 20 28 8 34
-15 8z"/>
<path d="M2204 4295 c4 -16 12 -34 18 -40 7 -7 8 -1 4 20 -4 17 -12 35 -18 40
-7 7 -8 1 -4 -20z"/>
<path d="M1678 4294 c-5 -4 -8 -21 -8 -38 1 -26 2 -28 11 -13 11 19 8 63 -3
51z"/>
<path d="M2217 4203 c-11 -10 -8 -53 3 -53 6 0 10 14 10 30 0 31 -2 35 -13 23z"/>
<path d="M1675 4163 c3 -16 11 -32 17 -38 8 -7 9 -2 4 15 -3 14 -6 31 -6 38 0
6 -5 12 -11 12 -7 0 -9 -10 -4 -27z"/>
<path d="M1717 4064 c10 -19 19 -31 21 -26 4 14 -16 62 -28 62 -5 0 -2 -16 7
-36z"/>
<path d="M2210 4078 c0 -15 5 -30 10 -33 13 -8 13 25 0 45 -8 12 -10 9 -10
-12z"/>
<path d="M2403 4007 c-24 -11 -43 -25 -43 -29 0 -13 17 -9 55 12 20 11 42 20
50 20 8 0 15 5 15 10 0 16 -31 11 -77 -13z"/>
<path d="M1750 4013 c1 -14 30 -47 36 -41 8 8 -14 48 -26 48 -6 0 -10 -3 -10
-7z"/>
<path d="M2253 3979 c28 -16 20 -32 -33 -62 -42 -24 -64 -47 -45 -47 10 0 115
62 121 72 8 13 -25 48 -45 48 -14 -1 -13 -2 2 -11z"/>
<path d="M1810 3933 c0 -5 9 -18 20 -28 11 -10 20 -14 20 -8 0 5 -9 18 -20 28
-11 10 -20 14 -20 8z"/>
<path d="M2320 3914 c0 -8 32 -33 43 -34 5 0 5 4 2 10 -8 13 -45 33 -45 24z"/>
<path d="M2030 3890 c0 -5 4 -10 9 -10 5 0 18 -3 28 -7 16 -6 16 -5 4 10 -15
19 -41 23 -41 7z"/>
<path d="M1958 3866 c-19 -14 -23 -26 -10 -26 4 0 18 9 32 20 16 13 20 20 10
19 -8 0 -23 -6 -32 -13z"/>
<path d="M1883 3853 c9 -9 20 -13 24 -9 4 4 1 11 -7 16 -25 16 -35 11 -17 -7z"/>
<path d="M2055 3813 c-22 -16 -45 -35 -52 -43 -20 -26 6 -23 38 4 32 27 49 33
49 16 0 -5 5 -10 10 -10 6 0 10 14 10 30 0 37 -5 37 -55 3z"/>
<path d="M2415 3820 c10 -11 23 -20 28 -20 6 0 2 9 -8 20 -10 11 -23 20 -28
20 -6 0 -2 -9 8 -20z"/>
<path d="M2475 3750 c3 -5 11 -10 16 -10 6 0 7 5 4 10 -3 6 -11 10 -16 10 -6
0 -7 -4 -4 -10z"/>
<path d="M2097 3706 c-4 -15 -6 -31 -2 -34 10 -10 16 6 13 35 l-3 28 -8 -29z"/>
<path d="M2395 3690 c10 -11 23 -20 28 -20 6 0 2 9 -8 20 -10 11 -23 20 -28
20 -6 0 -2 -9 8 -20z"/>
<path d="M1879 3678 c-13 -11 -71 -66 -127 -122 -98 -95 -103 -99 -97 -67 6
26 4 32 -6 29 -8 -3 -19 -31 -25 -65 -6 -33 -14 -67 -17 -76 -9 -24 -3 -22 54
18 28 19 57 35 64 35 16 0 37 25 29 33 -4 3 -20 -1 -36 -9 -62 -32 -39 1 80
116 67 65 119 121 114 124 -5 3 -20 -4 -33 -16z"/>
<path d="M2100 3573 c0 -10 5 -25 10 -33 8 -12 10 -9 10 12 0 15 -4 30 -10 33
-5 3 -10 -2 -10 -12z"/>
<path d="M2160 3564 c0 -13 38 -59 44 -53 2 2 -7 18 -20 34 -13 17 -24 25 -24
19z"/>
<path d="M2130 3457 c0 -7 7 -22 16 -33 14 -17 15 -17 10 -1 -3 10 -6 25 -6
33 0 8 -4 14 -10 14 -5 0 -10 -6 -10 -13z"/>
<path d="M2265 3450 c10 -11 23 -20 28 -20 6 0 2 9 -8 20 -10 11 -23 20 -28
20 -6 0 -2 -9 8 -20z"/>
<path d="M2354 3371 c11 -11 23 -21 28 -21 14 0 -1 19 -25 31 -22 12 -22 12
-3 -10z"/>
<path d="M2180 3356 c0 -13 39 -67 40 -55 0 9 -31 69 -36 69 -2 0 -4 -6 -4
-14z"/>
<path d="M2440 3296 c0 -2 8 -10 18 -17 15 -13 16 -12 3 4 -13 16 -21 21 -21
13z"/>
<path d="M2252 3240 c7 -11 16 -20 21 -20 4 0 3 9 -3 20 -6 11 -15 20 -20 20
-6 0 -5 -9 2 -20z"/>
<path d="M2316 3155 c9 -14 19 -24 21 -21 7 7 -16 46 -28 46 -5 0 -2 -11 7
-25z"/>
<path d="M2370 3092 c0 -10 33 -42 44 -42 9 0 -27 49 -36 50 -5 0 -8 -4 -8 -8z"/>
<path d="M2450 3007 c0 -2 14 -16 32 -33 30 -28 30 -17 0 19 -13 15 -32 23
-32 14z"/>
<path d="M3252 2825 c0 -16 2 -22 5 -12 2 9 2 23 0 30 -3 6 -5 -1 -5 -18z"/>
</g>
</svg>
