<?xml version="1.0" standalone="no"?>
<!DOCTYPE svg PUBLIC "-//W3C//DTD SVG 20010904//EN"
 "http://www.w3.org/TR/2001/REC-SVG-20010904/DTD/svg10.dtd">
<svg version="1.0" xmlns="http://www.w3.org/2000/svg"
 width="525.000000pt" height="352.000000pt" viewBox="0 0 525.000000 352.000000"
 preserveAspectRatio="xMidYMid meet">

<g transform="translate(0.000000,352.000000) scale(0.100000,-0.100000)"
fill="#000000" stroke="none">
<path d="M1400 3464 c-70 -23 -100 -38 -99 -47 1 -7 -3 -25 -9 -40 -15 -35
-16 -140 -2 -187 6 -19 11 -61 12 -93 1 -65 13 -58 23 13 9 68 17 76 53 61 19
-8 35 -24 41 -42 10 -29 21 -40 17 -16 -4 27 -29 58 -52 67 -29 11 -50 58 -34
74 8 8 9 5 4 -9 -7 -20 -7 -20 15 0 19 16 24 17 31 5 6 -8 10 -18 10 -22 0
-21 30 -5 30 15 0 26 77 107 102 107 9 0 20 5 23 10 18 29 36 -5 41 -75 2 -22
6 -52 10 -68 5 -23 4 -26 -12 -20 -14 5 -16 3 -11 -12 4 -9 2 -24 -4 -31 -8
-9 -8 -14 -1 -14 12 0 10 -39 -2 -59 -5 -8 -21 -11 -42 -9 l-34 4 -15 -72
c-15 -65 -15 -75 -1 -109 20 -46 15 -56 -11 -20 -10 15 -29 38 -42 53 -13 15
-29 35 -36 45 -8 12 -30 19 -66 23 l-54 5 49 -20 c34 -14 73 -45 133 -107 47
-49 88 -97 93 -108 4 -12 11 -52 15 -91 8 -65 9 -68 16 -35 12 51 -4 116 -52
204 -37 69 -40 81 -34 123 11 76 21 93 54 93 37 0 48 14 56 75 8 56 9 74 3
162 -4 57 -3 62 19 72 15 7 23 19 23 35 0 20 -8 26 -47 36 -65 18 -63 17 -65
20 -7 4 -135 8 -148 4z m190 -44 c0 -5 -2 -10 -4 -10 -3 0 -8 5 -11 10 -3 6
-1 10 4 10 6 0 11 -4 11 -10z m35 -40 c-3 -5 -12 -10 -18 -10 -7 0 -6 4 3 10
19 12 23 12 15 0z"/>
<path d="M1528 3299 c-19 -12 -7 -16 32 -9 34 5 34 6 8 11 -15 3 -32 2 -40 -2z"/>
<path d="M1550 3270 c-12 -8 -10 -10 8 -10 13 0 20 4 17 10 -7 12 -6 12 -25 0z"/>
<path d="M1373 3235 c-10 -10 -9 -16 3 -26 19 -15 26 -7 17 18 -7 17 -10 18
-20 8z"/>
<path d="M1222 2966 c-34 -35 -62 -67 -62 -70 0 -12 30 7 44 28 19 30 81 40
132 23 53 -17 104 -109 104 -187 0 -60 -8 -100 -20 -100 -10 0 -19 36 -11 47
3 5 -4 -2 -16 -15 -19 -19 -23 -35 -23 -85 0 -34 -7 -91 -15 -125 -15 -62 -14
-66 10 -134 14 -38 25 -89 25 -114 0 -48 47 -197 104 -331 19 -46 32 -83 27
-83 -5 0 -14 -20 -21 -45 -7 -25 -17 -48 -22 -52 -6 -3 -8 3 -4 16 15 54 15
63 -3 26 -10 -22 -26 -47 -36 -55 -21 -17 -21 -19 9 52 10 23 12 39 6 43 -6 3
-10 -1 -10 -9 0 -21 -32 -86 -42 -86 -4 0 -3 12 2 26 13 33 13 74 0 74 -5 0
-10 -10 -11 -22 -1 -13 -2 -38 -4 -56 -2 -27 1 -33 22 -38 16 -4 30 0 43 11
14 12 20 14 20 5 0 -26 29 12 36 46 3 19 11 37 17 41 6 4 8 0 4 -10 -4 -10 -2
-17 5 -17 20 0 2 93 -31 162 -18 37 -35 84 -38 105 -3 21 -9 40 -13 43 -4 3
-11 15 -15 28 -6 21 -4 23 17 20 12 -2 31 -12 41 -22 9 -10 17 -14 17 -8 0 7
5 12 10 12 6 0 10 -9 10 -20 0 -25 17 -26 23 -2 3 11 5 7 6 -10 0 -14 10 -55
21 -90 29 -92 24 -239 -10 -323 -25 -60 -50 -231 -50 -344 0 -23 -1 -23 -71
-17 -39 4 -77 10 -85 13 -10 4 -15 27 -16 87 l-2 81 -5 -80 -6 -80 -47 -9
c-27 -5 -50 -7 -52 -5 -3 3 -1 22 3 44 13 61 21 173 11 150 -5 -11 -9 -32 -9
-47 -1 -16 -5 -28 -10 -28 -14 0 -30 149 -42 376 -11 205 -10 212 10 250 12
21 21 44 21 50 0 6 6 17 13 23 18 15 35 -4 87 -98 32 -59 39 -81 34 -106 -3
-18 -1 -48 4 -68 6 -23 7 -51 1 -77 -10 -43 -5 -65 13 -54 7 4 6 9 -1 14 -9 5
-9 14 -1 34 6 17 8 59 4 108 -5 61 -4 82 6 88 10 6 3 18 -24 46 -21 22 -59 84
-85 139 -57 120 -75 170 -68 196 3 10 1 19 -4 19 -5 0 -9 28 -9 63 0 34 -5 80
-11 102 -15 59 -17 74 -18 148 -1 74 -18 91 -24 25 -2 -24 -3 -18 -1 12 3 56
8 95 18 140 4 15 -2 8 -13 -15 -32 -63 -36 -118 -17 -209 10 -45 24 -90 31
-102 7 -11 16 -60 20 -110 4 -49 16 -116 27 -149 24 -72 19 -130 -18 -213 -24
-52 -25 -64 -19 -137 4 -44 8 -123 9 -175 3 -87 13 -177 36 -305 14 -73 4
-159 -26 -250 -22 -66 -27 -96 -26 -175 4 -374 4 -433 -5 -439 -21 -13 -31
-49 -38 -129 -4 -45 -6 -82 -4 -83 78 -10 243 -22 300 -22 84 1 159 26 178 61
13 24 5 52 -15 52 -12 0 -12 -4 -2 -21 11 -17 10 -23 -9 -39 -40 -32 -203 -51
-245 -29 -12 6 -50 11 -85 10 -108 -2 -109 -2 -105 82 3 47 9 78 19 89 15 17
17 16 39 -8 20 -20 27 -23 44 -14 11 6 26 23 34 39 24 45 40 54 60 32 17 -18
17 -21 0 -48 l-18 -28 25 23 c31 27 49 29 24 2 -23 -26 -11 -39 14 -16 18 17
20 16 37 -13 15 -26 54 -50 54 -33 0 11 -83 98 -105 109 -19 11 -19 11 0 49
25 46 38 52 53 20 8 -18 7 -28 -4 -45 -17 -24 -12 -26 18 -10 18 9 19 8 13
-10 -4 -12 -2 -21 4 -21 6 0 11 5 11 10 0 6 5 10 11 10 6 0 9 -7 5 -15 -7 -18
5 -20 22 -3 9 9 12 9 12 -3 0 -9 6 -16 13 -17 68 -7 113 -17 119 -26 4 -6 10
-7 14 -3 15 15 -20 37 -59 37 -46 0 -137 54 -164 98 -9 15 -24 34 -34 42 -16
14 -16 25 -4 152 7 75 16 141 19 147 3 5 13 44 21 88 9 43 23 104 32 135 15
54 17 57 43 51 32 -6 31 -9 49 211 5 66 14 123 21 130 9 8 10 3 5 -24 -5 -19
-8 -86 -7 -147 0 -62 -3 -115 -9 -118 -5 -4 -9 -11 -9 -18 0 -7 6 -5 15 4 13
12 17 50 20 185 2 94 11 205 19 249 22 109 20 149 -9 234 -24 71 -24 76 -19
333 2 144 2 259 -2 255 -6 -6 -14 -118 -18 -247 -1 -36 -3 -95 -4 -131 l-2
-66 -56 8 c-32 4 -63 14 -71 22 -9 9 -16 40 -18 81 -2 44 -12 84 -29 122 -19
42 -22 55 -11 50 8 -3 15 -1 15 3 0 5 -5 11 -10 13 -16 5 13 113 49 185 21 41
33 82 37 125 6 58 3 68 -27 127 -40 77 -79 104 -148 104 -38 -1 -42 1 -24 9
20 10 38 36 30 44 -2 2 -31 -25 -65 -60z m180 -328 c6 -17 -1 -38 -13 -38 -5
0 -9 11 -9 25 0 26 14 34 22 13z m12 -1377 c-4 -14 -11 -34 -15 -43 -13 -25
-11 -32 5 -19 8 7 17 30 21 52 4 21 11 39 16 39 12 0 11 -15 -5 -74 -49 -173
-88 -424 -78 -496 1 -8 -1 -25 -3 -37 -6 -27 -42 -31 -52 -6 -4 9 5 80 20 157
14 78 29 177 33 221 3 44 11 89 16 100 11 19 10 19 -9 2 -16 -14 -21 -35 -26
-105 -4 -48 -17 -134 -29 -192 -12 -58 -22 -132 -22 -165 -1 -66 -30 -130 -54
-120 -8 3 -22 5 -33 5 -18 0 -19 7 -15 143 3 102 0 162 -11 215 -13 65 -13 80
1 140 32 142 51 212 58 212 5 0 8 -5 8 -11 0 -8 4 -8 13 0 23 18 90 28 129 18
34 -9 37 -12 32 -36z m-184 -711 c0 -5 -7 -10 -15 -10 -8 0 -15 5 -15 10 0 6
7 10 15 10 8 0 15 -4 15 -10z"/>
<path d="M3685 2738 c-27 -10 -50 -18 -51 -18 0 0 -7 -24 -14 -54 -12 -53 -11
-115 7 -281 4 -44 8 -55 14 -40 4 11 8 36 8 56 1 19 7 43 14 53 13 17 16 17
44 2 18 -9 35 -28 41 -46 14 -39 23 -39 12 0 -11 38 -19 50 -32 50 -5 0 -21 9
-34 19 -18 14 -21 22 -12 27 6 4 14 2 16 -4 2 -7 11 -12 19 -12 12 0 13 3 4
13 -6 8 -8 17 -4 21 4 4 -1 4 -12 0 -17 -7 -18 -6 -5 8 16 18 40 7 40 -18 0
-8 5 -14 10 -14 6 0 10 9 10 20 0 26 86 120 109 120 10 0 22 5 29 12 15 15 33
-31 30 -76 -1 -17 4 -41 10 -53 17 -32 15 -43 -10 -43 -21 0 -21 -1 -3 -14 18
-13 18 -13 -1 -24 -10 -6 -14 -12 -9 -12 7 0 9 -15 7 -35 -4 -33 -6 -35 -42
-35 -28 0 -40 -5 -43 -17 -25 -91 -29 -122 -20 -149 25 -69 25 -70 -1 -39 -14
17 -26 33 -26 36 0 4 -17 25 -37 47 -32 34 -46 41 -90 47 -42 5 -51 10 -46 23
2 10 -26 -15 -65 -54 -56 -58 -73 -83 -91 -134 -11 -35 -21 -84 -21 -109 1
-52 21 -146 39 -180 7 -12 16 -75 21 -139 5 -64 17 -142 25 -172 19 -64 20
-87 6 -115 -6 -11 -22 -59 -36 -108 -25 -91 -25 -126 2 -180 9 -18 12 -40 7
-60 -3 -17 -8 -59 -9 -92 -3 -62 -13 -146 -22 -179 -3 -11 -1 -16 5 -12 5 3
15 52 21 108 7 57 15 128 19 158 5 39 3 63 -7 83 -25 52 -24 98 3 177 14 41
26 83 26 93 0 9 7 17 15 17 8 0 15 -6 15 -13 0 -7 24 -61 53 -120 43 -86 54
-118 56 -162 2 -65 -6 -68 -80 -30 -27 13 -49 20 -49 14 0 -5 16 -17 35 -26
19 -9 35 -20 35 -25 0 -4 13 -5 29 -2 39 8 48 -12 14 -30 -16 -9 -21 -15 -13
-16 9 0 21 5 27 11 17 17 22 -4 12 -51 -12 -54 -6 -78 16 -60 8 7 15 9 16 4 2
-15 17 39 18 64 1 12 -3 22 -9 22 -5 0 -10 -10 -10 -23 0 -13 -7 -32 -15 -43
-15 -18 -15 -17 -8 16 8 37 9 72 4 155 -2 28 0 58 4 68 5 12 3 17 -5 15 -7 -2
-15 3 -18 11 -3 9 0 11 8 6 6 -4 -3 15 -22 41 -18 27 -41 67 -50 89 -9 22 -31
74 -49 115 -20 47 -33 93 -33 122 -1 27 -4 48 -7 48 -3 0 -9 44 -12 98 -3 54
-11 111 -17 127 -6 17 -15 71 -18 120 -7 85 -7 87 -13 40 -5 -33 -6 -23 -3 33
3 70 8 91 33 136 34 59 62 76 124 76 57 0 84 -21 118 -94 33 -69 37 -126 14
-177 -15 -32 -16 -32 -12 -6 5 32 -3 34 -26 9 -12 -13 -17 -37 -17 -78 0 -32
-7 -99 -15 -149 -14 -88 -14 -91 11 -169 14 -45 22 -91 19 -105 -5 -23 16
-108 60 -251 7 -25 29 -84 48 -132 20 -49 32 -88 27 -88 -5 0 -17 -25 -25 -55
-9 -30 -21 -57 -26 -60 -12 -8 -12 -7 7 49 9 26 14 50 11 53 -3 3 -11 -13 -16
-35 -12 -43 -50 -98 -50 -72 0 8 6 26 14 40 16 29 20 74 5 65 -5 -3 -10 -17
-10 -31 0 -29 -28 -76 -41 -68 -5 3 -9 -2 -9 -10 0 -8 -9 -20 -21 -26 -11 -7
-18 -14 -15 -17 3 -4 15 2 26 12 11 10 26 15 36 11 10 -4 25 1 35 10 15 14 19
14 19 3 1 -28 40 34 46 72 4 22 11 39 16 39 6 0 8 -7 4 -15 -3 -8 -1 -15 4
-15 20 0 9 67 -29 169 -74 202 -88 251 -71 261 13 8 12 10 -2 10 -10 0 -18 7
-18 15 0 18 3 18 55 4 37 -10 38 -12 20 -25 -20 -15 -17 -17 33 -14 17 1 32
-2 32 -6 0 -5 -17 -26 -37 -48 l-38 -39 34 23 c19 13 41 36 50 52 9 15 19 28
24 28 10 0 9 -3 -13 -55 -24 -55 -11 -53 14 3 17 38 20 39 59 37 23 -1 68 -6
100 -10 57 -8 57 -8 57 -42 0 -42 -26 -146 -46 -185 -8 -15 -21 -28 -29 -28
-23 0 -150 -53 -138 -57 6 -2 37 7 70 21 32 13 59 23 61 21 2 -2 -11 -29 -29
-60 -28 -50 -35 -56 -57 -50 -79 20 -79 20 -86 -22 -4 -21 -13 -61 -21 -89
-14 -50 -16 -52 -57 -58 -24 -4 -83 -20 -131 -37 -93 -30 -182 -38 -190 -16
-3 6 -6 0 -6 -15 -1 -16 -3 -28 -6 -28 -3 0 -29 12 -58 27 -44 23 -63 27 -127
26 -173 -4 -340 -15 -340 -24 0 -15 186 -10 261 7 58 13 79 14 117 4 60 -14
122 -46 145 -73 10 -12 16 -16 12 -9 -3 7 -3 21 0 32 5 15 15 20 43 20 45 1
103 13 161 35 24 9 46 13 49 10 10 -10 -89 -195 -112 -211 -37 -23 -85 -27
-161 -11 -75 16 -96 14 -49 -4 53 -20 167 -23 201 -6 36 19 103 115 129 184
21 58 38 73 81 73 40 0 49 15 65 112 6 40 12 74 13 75 0 1 20 -5 44 -13 23 -8
47 -12 52 -8 5 3 20 27 34 53 22 44 26 48 64 49 22 1 62 7 87 12 26 6 48 9 51
7 2 -3 -5 -20 -16 -38 -19 -33 -30 -80 -51 -229 -13 -98 -69 -260 -87 -253 -7
3 -17 -5 -22 -19 -16 -41 -51 -163 -51 -175 0 -21 48 -26 255 -27 238 -1 262
5 258 68 -3 46 -18 66 -48 66 -63 0 -183 73 -207 126 -9 19 -4 35 29 96 56
104 57 105 96 184 38 75 87 254 87 315 0 30 -7 43 -37 69 -66 59 -128 77 -343
105 -69 9 -138 20 -155 24 l-30 7 4 249 c8 425 11 387 -42 486 l-47 87 14 56
c19 72 22 76 55 76 28 0 57 21 45 33 -4 3 1 30 10 58 14 42 15 57 6 80 -7 16
-10 35 -7 43 3 8 2 29 -3 45 -8 27 -6 32 18 43 30 15 43 58 18 58 -9 0 -16 5
-16 11 0 6 -7 9 -15 6 -8 -4 -17 -2 -20 3 -4 6 -16 10 -29 10 -12 0 -25 3 -29
6 -13 14 -134 8 -182 -8z m270 -68 c-3 -5 -12 -10 -18 -10 -7 0 -6 4 3 10 19
12 23 12 15 0z m-271 -135 c-9 -14 -19 -23 -22 -20 -5 4 26 45 35 45 2 0 -4
-11 -13 -25z m10 -280 c20 -10 58 -46 85 -80 28 -35 59 -66 70 -70 26 -8 56
-88 54 -145 0 -25 -4 -97 -8 -160 -4 -63 -8 -144 -9 -180 -1 -36 -3 -96 -4
-133 l-2 -68 -47 6 c-103 14 -98 11 -99 63 -1 26 -12 75 -27 112 -26 63 -26
65 -9 112 10 28 23 48 31 48 12 0 12 3 3 12 -20 20 -13 73 19 141 17 36 33 90
36 119 4 46 0 61 -29 117 -42 82 -74 106 -139 106 -47 0 -62 8 -36 19 19 8 72
-1 111 -19z m36 -344 c0 -11 -4 -23 -10 -26 -6 -4 -10 5 -10 19 0 14 5 26 10
26 6 0 10 -9 10 -19z m543 -590 c12 -5 41 -14 63 -21 23 -7 59 -28 80 -46 34
-31 38 -39 36 -77 -7 -97 -52 -229 -132 -383 -44 -85 -80 -163 -80 -173 0 -11
-13 -33 -30 -49 -16 -17 -30 -35 -30 -41 0 -12 -39 -15 -64 -5 -20 8 -21 24
-1 24 17 0 20 17 4 22 -7 2 -3 23 10 58 28 73 49 155 56 215 2 28 7 73 10 100
8 70 56 145 92 145 17 0 23 4 17 9 -5 6 -52 2 -118 -10 -61 -10 -112 -16 -115
-14 -12 12 31 42 54 37 15 -2 25 0 25 7 0 6 -11 11 -24 11 l-24 0 19 50 c10
27 22 75 25 106 l7 56 49 -6 c27 -4 59 -11 71 -15z m-23 -752 c0 -6 -5 -20
-11 -32 -12 -21 -12 -21 17 -3 16 10 23 13 17 5 -7 -7 -13 -20 -13 -28 0 -12
3 -11 18 2 24 22 34 21 31 0 -3 -31 1 -36 16 -23 12 10 15 10 15 -3 0 -8 6
-14 13 -14 6 1 40 -5 74 -13 55 -12 63 -17 68 -42 8 -36 1 -46 -43 -57 -40
-11 -418 -8 -429 2 -6 6 18 104 38 155 9 22 10 22 31 8 12 -9 39 -16 59 -16
32 0 41 5 59 35 21 34 40 46 40 24z"/>
<path d="M4425 1210 c3 -5 8 -10 11 -10 2 0 4 5 4 10 0 6 -5 10 -11 10 -5 0
-7 -4 -4 -10z"/>
<path d="M4137 473 c-13 -13 -7 -31 13 -36 11 -3 20 -1 20 5 0 5 7 2 16 -7 11
-11 20 -13 27 -6 6 6 16 6 28 -2 22 -14 45 3 36 27 -5 12 -18 15 -57 12 -27
-2 -53 0 -56 5 -6 11 -18 12 -27 2z m73 -23 c0 -5 -4 -10 -10 -10 -5 0 -10 5
-10 10 0 6 5 10 10 10 6 0 10 -4 10 -10z m55 0 c3 -5 -1 -10 -10 -10 -9 0 -13
5 -10 10 3 6 8 10 10 10 2 0 7 -4 10 -10z"/>
<path d="M3846 2582 c-2 -4 11 -8 30 -8 19 0 34 4 34 8 0 4 -13 8 -29 8 -17 0
-32 -4 -35 -8z"/>
<path d="M3875 2550 c4 -6 11 -8 16 -5 14 9 11 15 -7 15 -8 0 -12 -5 -9 -10z"/>
<path d="M1260 2388 c0 -7 9 -26 20 -43 14 -20 20 -25 20 -13 0 9 -4 20 -10
23 -5 3 -10 15 -10 26 0 10 -4 19 -10 19 -5 0 -10 -6 -10 -12z"/>
<path d="M3610 2195 c-8 -9 -9 -15 -2 -15 6 0 14 5 17 10 4 6 11 8 16 5 5 -4
9 -1 9 4 0 16 -26 13 -40 -4z"/>
<path d="M1233 2066 c-6 -20 -7 -36 -2 -36 10 0 23 44 17 61 -2 6 -9 -5 -15
-25z"/>
<path d="M1481 2044 c0 -11 3 -14 6 -6 3 7 2 16 -1 19 -3 4 -6 -2 -5 -13z"/>
<path d="M3490 2055 c0 -5 5 -17 10 -25 5 -8 10 -10 10 -5 0 6 -5 17 -10 25
-5 8 -10 11 -10 5z"/>
<path d="M1301 1854 c0 -11 3 -14 6 -6 3 7 2 16 -1 19 -3 4 -6 -2 -5 -13z"/>
<path d="M1281 1734 c0 -11 3 -14 6 -6 3 7 2 16 -1 19 -3 4 -6 -2 -5 -13z"/>
<path d="M1271 1674 c0 -11 3 -14 6 -6 3 7 2 16 -1 19 -3 4 -6 -2 -5 -13z"/>
<path d="M3590 1633 c1 -24 39 -93 40 -71 0 9 -4 20 -10 23 -5 3 -10 17 -10
30 0 13 -4 27 -10 30 -5 3 -10 -2 -10 -12z"/>
<path d="M1262 1580 c0 -14 2 -19 5 -12 2 6 2 18 0 25 -3 6 -5 1 -5 -13z"/>
<path d="M1460 1400 c8 -5 24 -10 34 -10 26 0 18 6 -19 14 -22 5 -26 4 -15 -4z"/>
<path d="M3614 1174 c-18 -14 -18 -14 6 -3 31 14 36 19 24 19 -6 0 -19 -7 -30
-16z"/>
<path d="M4044 1169 c-10 -12 -53 -41 -94 -65 -41 -24 -68 -44 -59 -44 23 0
150 82 167 108 18 28 11 29 -14 1z"/>
<path d="M3510 1161 c0 -5 5 -13 10 -16 6 -3 10 -2 10 4 0 5 -4 13 -10 16 -5
3 -10 2 -10 -4z"/>
<path d="M3622 869 c-18 -12 -31 -24 -28 -26 5 -5 66 35 66 43 0 6 -3 5 -38
-17z"/>
<path d="M2743 727 c-40 -18 -75 -38 -78 -46 -7 -18 28 -87 64 -126 16 -16 38
-52 51 -78 31 -67 97 -101 183 -95 61 5 77 16 77 54 0 26 -18 44 -47 44 -15 0
-27 9 -35 25 -10 22 -8 33 10 70 l22 45 59 0 c33 0 97 -11 146 -25 49 -14 109
-28 134 -30 34 -4 22 1 -44 20 -189 51 -219 57 -276 51 -58 -6 -67 0 -73 49
-1 6 -5 16 -9 23 -5 6 -5 17 -2 22 3 6 -5 10 -19 10 -14 0 -28 5 -31 10 -11
17 -58 9 -132 -23z m101 -17 c-27 -53 -1 -82 86 -96 33 -5 38 -9 29 -21 -7 -7
-20 -11 -30 -8 -9 3 -20 1 -24 -5 -3 -5 1 -10 11 -10 13 0 14 -3 4 -15 -10
-11 -10 -15 0 -15 6 0 10 -6 8 -12 -6 -18 33 -56 62 -60 20 -2 25 -9 25 -33 0
-27 -4 -30 -39 -36 -74 -12 -158 28 -183 88 -8 20 -30 55 -47 78 -18 22 -42
56 -54 76 l-21 35 72 31 c40 17 82 31 94 32 21 1 21 0 7 -29z m66 -27 c8 -21
16 -41 18 -45 4 -9 -59 9 -70 20 -5 5 -6 21 -2 36 9 39 37 33 54 -11z"/>
<path d="M3320 592 c24 -15 90 -24 90 -12 0 5 -12 10 -27 10 -16 0 -39 3 -53
6 -18 4 -21 3 -10 -4z"/>
<path d="M3578 563 c6 -2 18 -2 25 0 6 3 1 5 -13 5 -14 0 -19 -2 -12 -5z"/>
<path d="M1380 510 c0 -5 5 -10 11 -10 5 0 7 5 4 10 -3 6 -8 10 -11 10 -2 0
-4 -4 -4 -10z"/>
<path d="M1635 499 c-4 -6 -5 -13 -2 -16 7 -7 27 6 27 18 0 12 -17 12 -25 -2z"/>
<path d="M1225 480 c3 -5 8 -10 11 -10 2 0 4 5 4 10 0 6 -5 10 -11 10 -5 0 -7
-4 -4 -10z"/>
<path d="M1480 481 c0 -6 6 -11 13 -11 6 0 23 -3 37 -6 17 -5 22 -4 15 4 -15
16 -65 26 -65 13z"/>
<path d="M1600 480 c0 -5 5 -10 10 -10 6 0 10 5 10 10 0 6 -4 10 -10 10 -5 0
-10 -4 -10 -10z"/>
<path d="M1340 461 c0 -4 -18 -7 -40 -6 -38 2 -51 -7 -30 -20 6 -4 17 -2 24 4
9 7 16 7 24 -1 6 -6 18 -8 26 -5 17 7 22 37 6 37 -5 0 -10 -4 -10 -9z"/>
<path d="M1210 452 c0 -5 7 -9 15 -9 8 0 15 4 15 9 0 4 -7 8 -15 8 -8 0 -15
-4 -15 -8z"/>
</g>
</svg>
