<?xml version="1.0" standalone="no"?>
<!DOCTYPE svg PUBLIC "-//W3C//DTD SVG 20010904//EN"
 "http://www.w3.org/TR/2001/REC-SVG-20010904/DTD/svg10.dtd">
<svg version="1.0" xmlns="http://www.w3.org/2000/svg"
 width="500.000000pt" height="512.000000pt" viewBox="0 0 500.000000 512.000000"
 preserveAspectRatio="xMidYMid meet">

<g transform="translate(0.000000,512.000000) scale(0.100000,-0.100000)"
fill="#000000" stroke="none">
<path d="M2938 4463 c-2 -180 -4 -776 -5 -1323 -4 -1350 -12 -2063 -25 -2076
-7 -6 -1078 -7 -1084 -1 -4 4 -2 46 5 94 6 48 14 156 17 238 4 106 13 180 30
251 13 55 28 134 34 175 16 128 10 429 -9 429 -3 0 -7 -99 -8 -220 -2 -215 -3
-224 -38 -364 -26 -106 -35 -162 -33 -212 2 -71 -18 -360 -26 -373 -6 -9 -36
-234 -43 -318 -9 -106 9 -109 21 -4 6 52 16 96 21 97 15 5 65 -66 65 -90 0
-19 -49 -102 -68 -116 -4 -3 -27 -38 -50 -78 -47 -79 -73 -91 -113 -51 -24 24
-23 55 6 254 21 144 16 228 -20 345 -37 121 -42 192 -20 311 17 94 18 103 1
196 -9 54 -24 146 -34 205 l-16 106 29 59 c16 32 38 64 48 72 24 17 87 115 87
136 0 20 -12 19 -54 -5 -28 -17 -44 -20 -85 -14 -54 7 -69 17 -53 37 5 7 17
33 25 58 13 37 13 54 5 89 -10 37 -9 45 6 56 18 13 28 11 114 -21 30 -10 74
-15 140 -14 53 1 111 -2 127 -6 34 -9 85 -42 85 -55 0 -8 -71 -32 -132 -45
-16 -3 -28 -10 -28 -15 0 -16 51 -12 110 9 93 33 86 87 -17 124 l-48 17 -5
148 c-7 205 -4 285 14 372 9 41 19 108 23 148 4 49 10 72 19 72 7 0 15 -9 19
-20 16 -52 168 -213 242 -256 60 -35 88 -32 117 14 35 53 55 181 66 412 11
253 19 325 41 381 31 81 44 198 29 268 -10 49 -21 68 -57 106 -50 50 -58 52
-89 27 -17 -13 -23 -32 -28 -89 -3 -39 -10 -81 -14 -93 -8 -21 -8 -21 -22 5
-9 17 -21 25 -34 23 -19 -3 -21 -10 -21 -95 0 -79 3 -95 21 -115 23 -25 32
-45 44 -96 8 -33 -22 -229 -52 -336 l-14 -48 -40 63 c-23 35 -60 96 -82 135
-60 104 -92 128 -204 154 -127 29 -138 38 -138 101 0 41 6 58 29 88 57 72 83
146 88 256 11 210 -48 315 -192 345 -75 16 -145 -1 -200 -47 -79 -66 -123
-203 -104 -323 11 -70 50 -151 86 -180 45 -36 53 -112 18 -181 -16 -31 -97
-74 -199 -105 -79 -25 -108 -54 -136 -138 -22 -67 -23 -78 -17 -300 7 -271 16
-336 67 -512 l38 -131 -48 -130 c-65 -174 -137 -497 -146 -653 -6 -116 3 -206
28 -258 15 -31 78 -67 131 -75 33 -5 41 -2 67 26 61 67 101 139 181 322 24 55
55 120 68 145 l25 45 8 -45 c5 -25 15 -81 24 -125 31 -162 34 -195 18 -274
-20 -108 -18 -216 6 -293 34 -110 94 -98 -510 -98 -347 0 -530 -3 -530 -10 0
-7 156 -10 448 -10 550 -1 609 -3 623 -17 21 -21 21 -114 0 -256 -23 -153 -26
-228 -11 -257 5 -10 25 -23 44 -30 48 -16 76 1 115 68 17 31 54 89 80 127 59
85 59 111 -2 178 l-42 45 7 62 c4 34 8 64 10 65 2 2 253 6 558 9 305 4 558 10
562 14 4 4 10 419 13 922 3 503 7 1129 10 1390 9 814 7 1424 -4 1428 -7 2 -11
-109 -13 -325z m-1214 -122 c54 -34 76 -65 98 -142 34 -122 12 -272 -53 -364
-48 -67 -59 -99 -53 -149 4 -25 12 -53 18 -61 6 -9 63 -29 125 -46 63 -16 121
-35 128 -41 14 -12 61 -80 103 -153 59 -99 151 -235 160 -235 13 0 13 6 -5 40
-16 31 -11 71 30 245 11 47 16 101 13 165 -3 86 -6 98 -31 132 -22 28 -29 50
-32 95 -4 77 4 86 24 27 9 -26 21 -49 26 -51 12 -4 45 142 45 195 0 17 4 32 9
32 13 0 21 -56 14 -105 -5 -39 -3 -45 12 -45 16 0 17 9 13 90 -3 56 -1 85 5
75 5 -9 10 -46 12 -83 2 -65 19 -95 28 -50 4 20 4 20 6 -4 1 -18 7 -28 17 -28
22 0 14 -79 -19 -190 -32 -108 -39 -169 -39 -349 0 -190 -35 -406 -69 -434
-42 -34 -108 1 -209 110 -66 70 -150 189 -150 212 0 8 -3 12 -6 8 -8 -8 -30
-125 -39 -207 -4 -36 -13 -94 -22 -130 -14 -64 -19 -266 -8 -355 3 -22 7 -59
9 -81 l5 -41 -72 -7 c-71 -6 -106 0 -209 35 -30 10 -43 10 -64 0 -26 -11 -26
-14 -21 -74 7 -66 -16 -157 -39 -157 -6 0 -14 23 -18 54 -5 47 -23 122 -72
300 -8 27 -23 74 -34 104 -19 49 -20 67 -13 156 12 146 10 433 -2 445 -7 7
-11 -54 -12 -192 0 -111 -5 -233 -11 -272 -9 -68 -9 -74 34 -203 24 -72 57
-198 74 -278 16 -81 32 -149 34 -152 9 -8 89 -21 136 -22 35 0 41 -3 28 -11
-10 -5 -15 -16 -12 -24 4 -8 2 -15 -4 -15 -5 0 -12 -9 -15 -19 -10 -40 -130
-37 -193 4 -20 13 -47 75 -133 300 -44 116 -107 346 -122 450 -9 55 -14 175
-14 310 0 196 2 226 19 265 34 77 48 87 181 131 33 11 81 36 107 54 52 38 68
75 68 157 0 43 -5 53 -49 102 -56 62 -81 127 -81 210 0 57 19 135 43 181 21
41 78 94 113 105 45 15 151 4 188 -19z m-449 -2016 c17 -50 44 -119 59 -155
45 -106 46 -103 -20 -154 -64 -50 -107 -109 -122 -171 -17 -65 -26 -175 -14
-175 14 0 19 17 27 96 10 100 41 159 126 234 l70 63 40 -12 c23 -7 58 -13 80
-13 30 0 39 -4 39 -17 0 -9 -4 -21 -9 -27 -14 -16 -108 -198 -141 -276 -73
-168 -130 -271 -177 -317 -23 -22 -27 -22 -71 -11 -78 19 -95 44 -112 159 -18
126 18 370 96 651 15 52 30 100 34 105 4 6 15 34 25 63 9 29 22 51 27 50 6 -2
25 -44 43 -93z"/>
<path d="M1600 2342 c0 -10 67 -32 101 -32 13 -1 38 -7 54 -14 l30 -13 -32
-17 c-34 -17 -47 -44 -15 -31 9 4 38 12 65 18 26 5 47 13 47 18 0 16 -76 47
-153 63 -88 18 -97 19 -97 8z"/>
<path d="M33 50 c0 -30 2 -43 4 -28 2 16 2 40 0 55 -2 16 -4 3 -4 -27z"/>
</g>
</svg>
