<?xml version="1.0" standalone="no"?>
<!DOCTYPE svg PUBLIC "-//W3C//DTD SVG 20010904//EN"
 "http://www.w3.org/TR/2001/REC-SVG-20010904/DTD/svg10.dtd">
<svg version="1.0" xmlns="http://www.w3.org/2000/svg"
 width="500.000000pt" height="408.000000pt" viewBox="0 0 500.000000 408.000000"
 preserveAspectRatio="xMidYMid meet">

<g transform="translate(0.000000,408.000000) scale(0.100000,-0.100000)"
fill="#000000" stroke="none">
<path d="M2697 3513 c-10 -3 -16 -10 -14 -16 2 -8 39 -13 108 -14 57 -1 115
-5 129 -8 14 -3 57 -12 95 -20 100 -19 133 -29 190 -56 66 -31 180 -95 207
-117 51 -40 111 -102 105 -108 -3 -4 -27 3 -52 15 -48 23 -85 27 -85 11 0 -6
8 -13 18 -16 52 -18 146 -70 177 -100 48 -45 59 -44 50 4 -4 20 -13 80 -19
132 -6 52 -16 94 -21 93 -6 -2 -12 -32 -15 -69 l-5 -66 -30 34 c-113 124 -347
251 -500 271 -22 3 -71 13 -110 21 -66 15 -188 19 -228 9z"/>
<path d="M1150 3333 c-8 -3 -52 -23 -97 -45 -119 -59 -220 -139 -305 -242 -10
-12 -23 -27 -30 -35 -14 -17 -99 -184 -114 -226 -30 -82 -44 -133 -44 -157 0
-15 -4 -29 -9 -32 -10 -7 -41 64 -41 94 0 13 -7 20 -20 20 -11 0 -20 -1 -20
-3 0 -2 16 -50 35 -108 19 -57 35 -114 35 -126 0 -13 5 -23 10 -23 6 0 10 7
10 15 0 23 67 148 95 180 17 17 24 33 20 44 -5 13 -14 7 -46 -28 -37 -42 -39
-42 -39 -18 0 14 5 29 10 32 6 3 10 15 10 25 0 34 102 254 139 299 47 59 115
127 174 174 47 38 230 136 255 137 6 0 12 7 12 15 0 15 -13 18 -40 8z"/>
<path d="M2930 3185 c0 -12 14 -15 70 -15 39 0 70 4 70 9 0 14 -28 21 -86 21
-41 0 -54 -4 -54 -15z"/>
<path d="M1525 3178 c-22 -5 -74 -17 -115 -26 -41 -9 -101 -29 -134 -45 -71
-34 -190 -121 -233 -170 -33 -37 -113 -152 -113 -161 0 -3 -11 -29 -24 -58
-48 -106 -59 -236 -32 -373 23 -112 43 -163 111 -278 39 -68 55 -134 55 -233
0 -114 7 -122 79 -98 66 21 91 14 143 -44 178 -196 267 -244 366 -193 20 10
70 46 110 80 40 34 80 61 88 61 29 0 73 -30 88 -61 34 -67 12 -180 -63 -334
-62 -127 -78 -167 -91 -227 -5 -27 -15 -69 -20 -95 -16 -73 -50 -273 -50 -294
0 -10 6 -19 13 -19 9 0 19 32 30 102 33 202 37 223 48 263 6 22 16 58 22 80 6
22 36 94 68 160 31 66 64 144 73 174 16 56 21 166 9 234 -6 41 -29 59 -44 36
-7 -11 -12 -12 -29 -1 -35 22 -82 15 -120 -19 -109 -95 -163 -129 -205 -129
-59 0 -149 67 -275 206 -64 71 -88 81 -140 60 -69 -27 -70 -26 -70 67 0 98
-16 163 -59 237 -159 273 -166 513 -23 740 87 139 257 260 422 302 200 51 289
44 439 -30 48 -25 185 -160 209 -208 l21 -41 -22 -21 c-15 -16 -18 -25 -10
-33 8 -8 13 -8 17 0 14 22 33 10 44 -26 30 -102 62 -305 62 -400 1 -60 19
-165 48 -274 11 -42 62 -139 100 -189 15 -19 68 -78 118 -130 149 -154 172
-182 203 -246 46 -93 58 -135 86 -309 14 -88 30 -182 35 -210 19 -104 40 -263
44 -328 4 -64 17 -99 32 -84 7 7 -12 229 -26 297 -20 96 -33 178 -40 245 -20
197 -64 350 -128 454 -19 30 -38 65 -43 79 -5 14 -12 22 -15 19 -9 -9 -36 15
-164 149 -161 167 -193 256 -230 629 -15 157 -25 216 -50 291 -19 60 -20 68
-6 83 23 26 20 42 -7 36 -19 -5 -27 1 -47 37 -28 50 -117 141 -181 185 -110
76 -258 108 -374 81z"/>
<path d="M2830 3180 c-14 -4 -37 -11 -52 -14 -16 -4 -28 -11 -28 -16 0 -14 58
-11 100 4 55 20 35 45 -20 26z"/>
<path d="M3110 3155 c0 -8 7 -15 16 -15 8 0 30 -11 48 -25 36 -27 56 -32 56
-12 0 15 -80 67 -104 67 -9 0 -16 -7 -16 -15z"/>
<path d="M2268 3146 c-28 -21 -22 -25 37 -25 59 0 77 12 46 28 -27 15 -62 13
-83 -3z"/>
<path d="M2410 3126 c0 -16 30 -26 78 -26 22 0 32 4 30 12 -9 25 -108 38 -108
14z"/>
<path d="M2605 3131 c-18 -4 -31 -14 -33 -25 -3 -13 1 -17 15 -13 10 3 42 11
71 17 28 7 52 16 52 21 0 10 -59 10 -105 0z"/>
<path d="M2256 3072 c-8 -13 24 -84 39 -86 6 0 11 9 13 20 4 26 -41 83 -52 66z"/>
<path d="M3264 3056 c-5 -13 6 -31 42 -67 26 -27 52 -49 56 -49 21 0 3 35 -41
82 -43 45 -51 50 -57 34z"/>
<path d="M2210 2934 c-22 -19 -28 -30 -21 -37 8 -8 20 -2 41 18 50 48 34 64
-20 19z"/>
<path d="M3380 2896 c0 -9 3 -16 8 -16 4 0 18 -25 31 -55 13 -30 30 -55 37
-55 20 0 17 19 -15 80 -27 53 -61 78 -61 46z"/>
<path d="M1955 2723 c-27 -41 -33 -83 -11 -83 7 0 16 14 20 31 3 16 13 37 21
45 17 17 20 44 5 44 -5 0 -21 -17 -35 -37z"/>
<path d="M3473 2703 c12 -62 29 -119 38 -127 17 -18 30 7 20 39 -6 17 -15 49
-21 73 -7 27 -16 42 -27 42 -11 0 -14 -7 -10 -27z"/>
<path d="M1940 2578 c0 -19 33 -88 42 -88 19 0 18 29 -2 64 -22 36 -40 47 -40
24z"/>
<path d="M3520 2470 c0 -54 3 -70 14 -70 18 0 25 71 13 113 -15 48 -27 29 -27
-43z"/>
<path d="M2010 2443 c0 -19 46 -93 57 -93 18 0 16 15 -7 60 -11 22 -27 40 -35
40 -8 0 -15 -3 -15 -7z"/>
<path d="M3504 2278 c-22 -74 -21 -101 1 -76 17 18 48 125 40 138 -13 21 -21
8 -41 -62z"/>
<path d="M2080 2256 c0 -44 3 -56 16 -56 12 0 14 10 12 52 -4 74 -28 77 -28 4z"/>
<path d="M2047 2109 c-25 -46 -28 -69 -8 -69 8 0 51 81 51 98 0 28 -18 16 -43
-29z"/>
<path d="M3446 2118 c-8 -18 -23 -45 -33 -60 -19 -31 -12 -48 13 -28 14 12 64
101 64 115 0 3 -7 5 -15 5 -8 0 -21 -15 -29 -32z"/>
<path d="M1976 1983 c-23 -66 -24 -73 -10 -73 14 0 44 55 44 80 0 17 -27 11
-34 -7z"/>
<path d="M3330 1980 c-14 -11 -30 -20 -36 -20 -15 0 -39 -29 -31 -36 17 -17
117 41 117 67 0 15 -23 10 -50 -11z"/>
<path d="M2663 1919 c-18 -12 -33 -25 -33 -29 0 -17 26 -16 49 1 13 11 29 19
36 19 7 0 15 7 19 15 8 22 -32 19 -71 -6z"/>
<path d="M2770 1930 c0 -6 8 -13 18 -16 9 -4 31 -12 49 -20 17 -8 38 -14 47
-14 22 0 20 30 -1 30 -10 0 -27 7 -37 15 -23 17 -76 20 -76 5z"/>
<path d="M3161 1906 c-50 -13 -67 -36 -27 -36 26 0 96 25 96 33 0 12 -29 13
-69 3z"/>
<path d="M2940 1887 c0 -20 21 -27 81 -27 37 0 49 4 49 15 0 11 -11 15 -42 15
-24 0 -53 3 -65 6 -17 5 -23 2 -23 -9z"/>
<path d="M1921 1813 c-15 -52 -14 -80 3 -86 17 -7 21 5 31 76 5 38 3 47 -9 47
-9 0 -19 -15 -25 -37z"/>
<path d="M2580 1815 c-18 -47 -22 -73 -12 -79 13 -7 28 12 34 44 3 14 9 33 13
43 5 12 2 17 -9 17 -9 0 -21 -11 -26 -25z"/>
<path d="M1992 1108 c-5 -7 -20 -42 -32 -78 -19 -53 -23 -84 -22 -170 1 -128
8 -190 21 -203 19 -19 22 15 12 127 -10 119 -1 200 30 274 11 24 19 48 19 53
0 13 -16 11 -28 -3z"/>
<path d="M2568 1085 c-3 -3 -1 -23 4 -43 6 -20 11 -119 12 -219 0 -113 5 -184
11 -184 6 -1 13 16 17 37 8 48 1 314 -9 368 -8 37 -22 54 -35 41z"/>
<path d="M1 14 c0 -11 3 -14 6 -6 3 7 2 16 -1 19 -3 4 -6 -2 -5 -13z"/>
</g>
</svg>
