<?xml version="1.0" standalone="no"?>
<!DOCTYPE svg PUBLIC "-//W3C//DTD SVG 20010904//EN"
 "http://www.w3.org/TR/2001/REC-SVG-20010904/DTD/svg10.dtd">
<svg version="1.0" xmlns="http://www.w3.org/2000/svg"
 width="378.000000pt" height="400.000000pt" viewBox="0 0 378.000000 400.000000"
 preserveAspectRatio="xMidYMid meet">
<metadata>
Created by potrace 1.16, written by Peter Selinger 2001-2019
</metadata>
<g transform="translate(0.000000,400.000000) scale(0.100000,-0.100000)"
fill="#000000" stroke="none">
<path d="M1677 3950 c-44 -14 -133 -88 -167 -137 -40 -61 -68 -139 -89 -248
-13 -65 -32 -118 -69 -192 -47 -93 -55 -103 -80 -103 -40 -1 -131 -24 -186
-48 -26 -12 -83 -51 -126 -87 -212 -176 -287 -318 -304 -570 -5 -63 -17 -128
-32 -175 -27 -81 -47 -200 -38 -224 10 -27 -17 -86 -76 -164 -65 -88 -97 -147
-131 -247 -20 -58 -24 -90 -24 -185 0 -106 2 -119 27 -166 70 -132 230 -207
468 -220 58 -3 141 -13 185 -22 48 -9 134 -16 212 -16 73 -1 133 -2 133 -2 0
-1 -9 -21 -19 -45 -11 -24 -25 -91 -31 -149 -13 -126 -36 -238 -58 -294 -40
-101 -82 -144 -107 -109 -22 29 -46 6 -84 -83 -44 -100 -48 -176 -12 -205 13
-11 34 -19 46 -19 36 0 55 -10 55 -31 0 -27 25 -36 141 -54 57 -9 124 -23 149
-32 25 -8 77 -27 115 -40 137 -49 299 -11 395 93 73 80 50 113 -105 155 -61
17 -128 41 -150 54 -42 24 -135 117 -135 134 0 15 45 67 200 226 219 227 296
338 326 476 9 41 27 92 40 115 32 54 46 134 35 187 -7 32 -23 55 -65 93 -155
146 -359 199 -764 198 l-234 -1 6 29 c3 15 35 63 72 106 36 42 80 101 96 130
26 45 34 52 61 52 51 1 108 33 162 91 l50 55 44 -13 c49 -14 235 -35 266 -29
11 2 49 -12 84 -30 77 -41 143 -45 221 -14 41 16 64 19 118 14 74 -7 162 11
231 45 l39 20 7 -157 c4 -86 5 -267 1 -402 -4 -135 -9 -330 -12 -435 -5 -224
-21 -512 -29 -525 -3 -5 -12 -83 -21 -174 -19 -208 -19 -208 74 -204 l67 3 12
85 c7 47 12 105 11 130 -1 25 4 56 11 69 7 13 15 59 18 102 3 44 8 79 11 79 3
0 29 -12 58 -26 74 -36 87 -64 73 -158 -6 -39 -14 -105 -18 -146 -7 -70 -23
-144 -74 -333 l-21 -78 29 -24 c27 -22 40 -24 124 -25 l94 0 -7 41 c-6 40 -5
56 34 264 11 61 20 129 20 153 0 23 6 72 13 109 l12 66 313 -6 c235 -4 312 -2
309 6 -5 17 -117 24 -399 26 l-248 1 -6 -27 c-3 -16 -10 -44 -15 -63 -5 -19
-9 -57 -9 -85 0 -27 -9 -99 -20 -160 -36 -195 -40 -221 -40 -258 l0 -37 -63 0
c-51 0 -68 4 -82 20 -17 19 -17 24 -3 78 34 124 68 279 68 307 0 16 8 80 17
141 15 105 15 114 -1 148 -13 28 -32 44 -79 67 -34 17 -70 38 -79 46 -9 8 -21
12 -26 9 -5 -3 -12 -47 -15 -98 -3 -54 -12 -110 -22 -132 -9 -21 -14 -48 -11
-60 3 -12 1 -63 -6 -114 l-11 -92 -45 0 -45 0 7 123 c3 67 12 160 20 207 25
148 31 325 39 1074 l5 490 88 74 c49 41 143 116 210 167 66 51 125 105 132
120 14 30 16 79 3 103 -4 9 -11 34 -15 55 l-7 37 64 0 c35 0 84 -7 110 -16 45
-15 48 -19 63 -71 13 -45 14 -67 6 -112 -6 -31 -18 -101 -28 -156 -9 -55 -24
-116 -32 -135 -9 -19 -17 -60 -19 -90 -2 -30 -12 -107 -23 -170 -16 -97 -41
-311 -36 -317 2 -2 189 15 296 28 52 6 126 13 163 16 46 3 67 9 64 16 -5 14
-101 14 -237 -2 -52 -6 -130 -14 -172 -17 l-78 -7 6 84 c3 46 15 127 25 181
10 53 19 118 19 145 0 26 8 75 19 108 17 54 31 119 64 299 11 63 -3 167 -26
195 -25 30 -91 51 -167 51 -50 1 -68 4 -55 10 18 7 19 8 3 15 -36 14 -48 -1
-48 -60 0 -30 5 -74 12 -99 16 -62 0 -93 -78 -151 -36 -26 -132 -102 -215
-170 -207 -169 -283 -203 -424 -190 -58 5 -79 3 -119 -14 -73 -32 -134 -28
-213 14 -49 26 -79 35 -113 35 -79 0 -219 29 -296 61 -90 38 -169 105 -200
173 -16 35 -34 55 -66 74 l-43 25 33 -35 32 -34 -77 -84 c-94 -101 -167 -150
-276 -186 -86 -28 -158 -61 -192 -88 -11 -9 6 -5 37 9 31 14 96 37 145 51 123
36 194 76 289 166 45 43 84 78 88 78 3 0 12 -13 21 -30 20 -38 79 -95 134
-130 l44 -28 -60 -60 c-46 -47 -69 -62 -99 -67 -62 -10 -81 -21 -87 -52 -3
-16 -44 -74 -91 -130 -66 -79 -87 -111 -92 -142 -6 -38 -8 -40 -56 -50 -27 -6
-57 -11 -66 -11 -13 0 -442 155 -460 166 -2 1 12 24 31 51 60 84 70 112 73
198 2 72 32 202 54 230 4 6 10 56 14 113 16 247 88 385 279 540 138 111 170
126 348 166 15 3 26 11 25 18 0 7 17 50 39 95 36 74 43 82 69 82 20 1 39 13
65 42 l37 40 19 -60 c10 -33 26 -68 36 -77 18 -16 17 -18 -1 -55 -11 -21 -20
-47 -20 -58 0 -11 22 -49 49 -84 l49 -64 -28 -43 c-15 -23 -36 -60 -46 -81 -9
-22 -22 -38 -28 -36 -6 2 -14 45 -18 98 -11 140 -13 143 -22 32 l-8 -103 -26
6 c-35 8 -33 7 -66 87 -33 78 -42 84 -21 12 24 -79 22 -85 -32 -86 l-48 -1 53
-9 c88 -15 147 -46 206 -109 30 -33 63 -83 76 -114 21 -50 26 -55 61 -61 97
-17 242 -117 263 -183 4 -11 18 -28 32 -36 20 -14 23 -22 17 -44 l-6 -27 37
33 c80 70 173 103 381 132 294 43 404 71 428 113 7 13 12 58 12 112 l0 89 30
9 c17 5 46 18 67 28 l36 19 31 -26 c17 -14 29 -30 25 -35 -3 -5 0 -9 5 -9 6 0
11 9 11 20 0 26 -58 63 -85 54 -11 -3 -38 -9 -61 -14 -59 -13 -92 -30 -97 -52
-3 -10 -1 -51 5 -90 11 -71 11 -72 -16 -95 -36 -30 -46 -29 -46 6 0 16 -5 42
-10 57 -10 24 -7 31 21 56 25 23 30 34 25 56 -12 49 -53 70 -121 62 -33 -4
-77 -30 -82 -50 -4 -14 -16 -20 -47 -22 l-41 -3 -3 -101 -3 -101 -52 -12 c-29
-6 -115 -20 -192 -31 -125 -17 -182 -27 -266 -46 -20 -4 -29 0 -43 21 -25 38
-124 99 -203 124 -67 22 -69 23 -86 70 -9 26 -33 70 -54 96 l-37 49 35 64 c40
75 61 93 87 74 30 -22 116 -62 134 -62 25 0 55 37 63 77 4 21 13 37 24 40 16
4 41 43 55 86 3 10 15 17 30 17 50 0 65 43 35 102 -15 28 -10 55 15 93 18 26
26 56 31 113 6 62 12 82 31 101 53 53 10 133 -101 190 -212 108 -297 134 -368
111z m355 -279 c18 -15 40 -30 48 -33 14 -4 17 -77 4 -139 l-5 -26 -47 24
c-37 18 -53 21 -77 14 l-30 -9 33 -1 c21 -1 42 -11 62 -30 27 -25 29 -32 20
-56 -8 -21 -7 -41 5 -80 8 -29 15 -56 15 -59 0 -4 -22 -4 -50 -1 -31 3 -50 2
-50 -5 0 -5 5 -10 11 -10 15 0 7 -45 -8 -46 -7 -1 -25 -3 -40 -4 l-28 -2 25
-7 c35 -10 40 -41 6 -41 -23 0 -26 -4 -26 -36 0 -46 -16 -74 -41 -74 -51 0
-141 66 -210 153 -45 56 -50 94 -19 145 25 40 25 40 -1 44 -25 4 -58 74 -58
126 -1 42 23 89 49 97 31 10 68 -19 81 -66 8 -26 22 -45 39 -54 25 -13 28 -12
49 16 24 32 91 68 128 69 16 0 20 5 16 20 -11 41 20 100 52 100 8 0 29 -13 47
-29z m741 -751 c17 -1 -35 -40 -53 -40 -11 0 -15 -13 -17 -48 l-2 -47 16 36
c9 23 29 44 54 58 37 21 39 21 39 3 0 -10 -9 -27 -21 -38 -19 -17 -20 -26 -15
-79 3 -33 2 -65 -2 -72 -9 -14 -146 -50 -222 -57 l-55 -6 64 19 c35 11 75 30
89 45 28 27 30 49 17 151 l-6 52 38 16 c21 9 44 14 51 12 8 -3 19 -5 25 -5z
m-2003 -1088 l165 -61 250 5 c212 5 428 -3 439 -17 1 -2 -5 -112 -15 -244 -10
-132 -18 -250 -18 -262 -1 -19 -12 -25 -70 -43 -146 -43 -316 -49 -486 -15
-38 7 -106 16 -150 20 -106 8 -233 39 -295 70 -72 37 -115 79 -149 146 -36 73
-46 143 -32 231 12 69 58 201 85 243 l15 23 48 -17 c26 -10 122 -46 213 -79z
m1050 -108 c116 -30 219 -79 285 -138 l50 -45 -1 -65 c-1 -52 -8 -75 -32 -118
-16 -29 -33 -69 -37 -88 -10 -47 -64 -163 -107 -231 -52 -80 -119 -161 -253
-304 -66 -70 -131 -143 -144 -161 -19 -26 -31 -34 -55 -34 -25 0 -43 -13 -94
-66 -51 -54 -70 -67 -102 -71 -35 -5 -38 -4 -34 15 3 11 17 25 30 33 70 37
124 172 149 372 28 220 74 351 137 385 16 9 55 31 85 49 42 25 71 34 131 40
l77 7 -85 8 c-64 5 -88 4 -100 -6 -8 -7 -36 -26 -62 -41 l-48 -27 0 49 c0 26
7 131 15 233 8 102 15 198 15 213 0 28 1 29 43 22 23 -3 85 -17 137 -31z
m-290 -552 c0 -4 -4 -12 -9 -17 -19 -20 -52 -152 -67 -269 -28 -219 -60 -321
-123 -384 -25 -24 -37 -30 -50 -23 -10 6 -32 5 -59 -2 -45 -12 -69 -2 -38 17
96 57 139 164 171 416 12 96 22 139 45 186 27 55 33 61 72 71 60 14 58 14 58
5z m33 -685 c45 -69 150 -145 230 -167 85 -23 72 -56 -33 -87 -30 -9 -62 -21
-72 -26 -13 -9 -32 2 -100 60 l-83 71 -30 -16 c-19 -11 -55 -16 -101 -17 -60
0 -76 4 -112 28 l-42 27 17 43 c9 23 20 46 24 51 15 16 21 -1 9 -24 -18 -34
-4 -60 34 -60 57 0 90 19 145 80 58 66 88 76 114 37z m-296 -173 c55 -37 138
-37 224 0 10 5 41 -16 97 -64 44 -38 85 -70 90 -70 5 0 15 6 21 14 7 8 24 17
39 21 63 14 110 38 122 61 11 19 18 22 39 17 40 -9 42 -12 27 -41 -8 -15 -17
-34 -20 -44 -9 -31 -112 -61 -211 -62 -84 -1 -95 1 -169 37 -99 47 -229 93
-288 102 -46 7 -46 7 -36 36 6 18 14 26 21 22 7 -4 26 -17 44 -29z m16 -50
c33 -8 121 -42 195 -75 119 -53 140 -59 200 -59 104 0 242 46 242 80 0 10 9
28 20 41 17 21 21 22 30 9 5 -8 10 -20 10 -27 0 -26 -56 -75 -125 -109 -64
-32 -82 -36 -147 -36 -73 1 -90 5 -240 61 -32 11 -71 21 -87 21 -40 0 -157 37
-176 56 -20 20 -20 54 1 54 9 0 44 -7 77 -16z"/>
<path d="M2703 1373 c1 -159 -3 -315 -7 -348 l-8 -60 32 -19 c18 -10 61 -40
97 -67 35 -27 70 -49 78 -49 21 0 30 170 27 505 l-3 200 -41 25 c-23 14 -67
42 -98 63 -32 20 -62 37 -68 37 -7 0 -10 -97 -9 -287z m84 205 c21 -12 44 -28
51 -35 8 -7 22 -18 33 -23 18 -10 19 -24 18 -288 0 -152 -3 -294 -7 -315 l-7
-38 -53 40 c-29 22 -61 42 -71 46 -27 8 -32 29 -21 83 6 26 9 159 7 300 -1
138 1 252 5 252 4 0 24 -10 45 -22z"/>
<path d="M3420 1479 c-30 -5 -125 -8 -210 -7 l-155 3 -2 -60 c-1 -33 -7 -185
-14 -339 -9 -225 -9 -280 1 -286 8 -5 146 -7 309 -7 233 2 296 5 296 15 0 10
-41 14 -170 17 -93 3 -181 5 -195 4 -14 0 -68 -1 -120 -2 l-95 -2 0 65 c0 36
4 178 9 315 l9 250 161 0 c226 1 448 15 443 29 -5 14 -191 17 -267 5z"/>
</g>
</svg>
