<?xml version="1.0" standalone="no"?>
<!DOCTYPE svg PUBLIC "-//W3C//DTD SVG 20010904//EN"
 "http://www.w3.org/TR/2001/REC-SVG-20010904/DTD/svg10.dtd">
<svg version="1.0" xmlns="http://www.w3.org/2000/svg"
 width="500.000000pt" height="381.000000pt" viewBox="0 0 500.000000 381.000000"
 preserveAspectRatio="xMidYMid meet">
<metadata>
Created by potrace 1.16, written by Peter Selinger 2001-2019
</metadata>
<g transform="translate(0.000000,381.000000) scale(0.100000,-0.100000)"
fill="#000000" stroke="none">
<path d="M2123 3477 c-8 -13 2 -18 46 -24 23 -3 41 -8 41 -12 0 -3 -29 -19
-63 -35 -97 -46 -180 -102 -229 -154 -87 -93 -162 -209 -188 -287 -7 -22 -16
-44 -20 -50 -8 -11 -50 -141 -50 -156 0 -5 6 -9 14 -9 13 0 56 94 56 121 0 6
6 23 14 37 18 34 46 98 46 106 0 20 105 162 160 216 62 62 215 157 280 175 23
6 21 3 -12 -30 -21 -19 -38 -40 -38 -45 0 -22 34 -8 69 28 20 20 69 54 109 75
39 21 72 42 72 46 0 10 -300 8 -307 -2z"/>
<path d="M2389 3226 c-111 -29 -168 -63 -254 -150 -131 -132 -209 -278 -261
-488 -28 -114 -32 -277 -9 -373 25 -104 20 -173 -21 -283 -37 -100 -101 -206
-151 -254 -75 -71 -189 -137 -280 -162 -26 -7 -93 -27 -148 -43 -55 -17 -140
-38 -190 -48 -105 -21 -206 -58 -255 -93 -40 -30 -120 -112 -120 -125 0 -5 -8
-21 -19 -35 -10 -15 -26 -49 -36 -77 -10 -27 -22 -54 -26 -60 -3 -5 -10 -26
-14 -45 -4 -19 -13 -48 -20 -65 -7 -16 -21 -57 -31 -90 -10 -33 -28 -91 -40
-130 -22 -67 -57 -227 -68 -308 -4 -28 -1 -40 10 -44 21 -8 23 -3 29 57 16
160 150 597 226 740 76 140 156 194 363 241 161 36 253 61 361 99 107 38 134
51 200 98 132 93 204 197 256 365 12 40 25 75 28 80 4 4 24 -17 45 -47 43 -63
113 -124 178 -155 58 -28 165 -37 249 -23 123 22 114 25 111 -40 -7 -115 71
-205 253 -294 61 -29 142 -64 180 -78 88 -31 205 -79 269 -111 28 -14 55 -25
61 -25 6 0 32 -13 57 -29 81 -52 173 -218 218 -396 47 -184 61 -257 63 -331 3
-74 4 -79 26 -82 23 -4 23 -3 18 70 -12 183 -100 493 -174 613 -74 120 -89
134 -208 190 -60 28 -126 57 -145 64 -19 7 -48 19 -65 27 -16 7 -73 30 -125
50 -278 108 -370 181 -385 305 -8 65 17 106 110 180 109 88 176 158 249 261
178 255 216 349 219 542 2 113 0 126 -27 191 -37 89 -63 124 -141 188 -170
141 -352 180 -566 123z m356 -38 c71 -28 204 -119 241 -165 44 -54 79 -128 94
-196 11 -47 11 -79 1 -168 -19 -165 -64 -260 -230 -489 -63 -88 -69 -94 -180
-189 -105 -90 -143 -109 -256 -133 -194 -39 -330 16 -436 177 -56 84 -77 151
-90 285 -18 190 33 397 143 585 60 101 206 243 283 274 125 51 326 59 430 19z"/>
</g>
</svg>
