<?xml version="1.0" standalone="no"?>
<!DOCTYPE svg PUBLIC "-//W3C//DTD SVG 20010904//EN"
 "http://www.w3.org/TR/2001/REC-SVG-20010904/DTD/svg10.dtd">
<svg version="1.0" xmlns="http://www.w3.org/2000/svg"
 width="494.000000pt" height="394.000000pt" viewBox="0 0 494.000000 394.000000"
 preserveAspectRatio="xMidYMid meet">
<metadata>
Created by potrace 1.16, written by Peter Selinger 2001-2019
</metadata>
<g transform="translate(0.000000,394.000000) scale(0.100000,-0.100000)"
fill="#000000" stroke="none">
<path d="M1405 3558 c-56 -22 -128 -85 -155 -138 -35 -68 -60 -170 -60 -244 0
-87 19 -156 71 -256 21 -42 39 -79 39 -82 0 -7 -71 11 -135 35 l-40 14 -3 119
-2 119 21 -32 c12 -18 25 -33 30 -33 12 0 12 1 -16 53 -13 26 -28 60 -32 77
-12 44 -26 38 -38 -17 -6 -26 -18 -62 -27 -80 -21 -42 -10 -51 19 -16 l23 28
-3 -109 -2 -110 -32 -8 c-53 -14 -150 -118 -220 -235 -41 -70 -163 -317 -163
-331 0 -3 -9 -24 -19 -46 -70 -147 -117 -289 -146 -441 -15 -77 -17 -130 -12
-365 3 -164 10 -291 17 -315 7 -23 13 -123 14 -240 l2 -200 33 -79 c39 -94 68
-136 93 -136 11 0 33 -7 51 -16 42 -22 164 -24 177 -4 12 19 3 47 -27 87 -25
33 -57 122 -48 132 3 2 12 -5 21 -17 17 -24 59 -30 67 -9 3 7 -6 61 -20 119
-21 89 -30 112 -63 152 -69 84 -80 160 -51 378 11 86 27 181 35 210 19 67 37
208 30 236 -4 13 12 59 41 124 51 110 144 340 146 361 4 31 17 -107 18 -186 1
-48 15 -206 32 -350 32 -273 32 -309 5 -484 -22 -137 -32 -313 -17 -313 7 0
11 21 11 58 0 59 21 234 40 331 14 74 12 177 -5 301 -38 269 -46 370 -43 574
2 157 0 206 -9 206 -7 0 -20 -26 -28 -57 -30 -108 -91 -264 -164 -421 -38 -81
-52 -121 -48 -140 7 -34 -8 -150 -34 -260 -34 -147 -53 -355 -40 -434 11 -64
44 -137 72 -153 6 -4 17 -23 25 -42 16 -38 48 -193 41 -200 -3 -2 -14 5 -25
17 -21 22 -42 90 -42 134 0 14 -4 28 -10 31 -6 4 -10 -33 -10 -103 0 -98 3
-114 26 -158 14 -27 32 -56 40 -65 8 -8 14 -23 14 -32 0 -51 -53 20 -102 137
-33 78 -55 109 -44 63 12 -53 47 -136 71 -172 31 -45 32 -59 3 -44 -31 16 -47
40 -87 129 -18 41 -37 79 -42 84 -14 15 -21 0 -11 -21 6 -10 27 -54 48 -98 21
-44 40 -83 42 -88 2 -4 -8 -2 -23 5 -19 8 -40 38 -71 99 -24 48 -48 90 -54 94
-16 10 -13 1 28 -85 21 -44 33 -80 27 -80 -11 0 -76 121 -91 170 -4 14 -8 111
-9 215 -1 119 -7 213 -16 250 -10 43 -14 141 -14 355 l0 295 33 120 c37 138
53 180 134 365 115 261 182 380 262 473 53 60 102 97 130 97 13 0 16 -13 17
-72 1 -65 13 -139 19 -113 2 6 1 50 0 99 -2 100 -12 94 90 57 30 -11 70 -20
89 -21 23 0 44 -10 69 -31 45 -40 91 -59 139 -59 46 0 150 48 179 82 16 19 32
25 68 26 26 1 63 9 83 17 56 23 56 22 50 -65 -3 -44 -2 -80 3 -80 13 0 19 24
26 105 l7 75 50 0 c47 0 53 -3 91 -45 45 -49 42 -43 181 -330 98 -201 167
-376 204 -516 11 -41 25 -88 31 -103 19 -51 11 -305 -17 -544 -18 -158 -26
-282 -27 -407 -1 -162 -3 -188 -25 -255 -14 -41 -26 -70 -28 -63 -2 6 5 42 16
78 24 77 24 75 13 75 -5 0 -24 -46 -43 -102 -18 -56 -41 -111 -51 -122 -25
-30 -22 -10 12 91 17 48 30 96 30 106 0 40 -20 1 -55 -108 -20 -63 -41 -115
-46 -115 -6 0 -8 8 -5 18 16 49 46 205 41 211 -10 9 -22 -18 -29 -63 -10 -63
-48 -186 -58 -186 -4 0 -6 10 -4 23 17 82 31 286 22 321 -11 44 -23 29 -19
-21 4 -36 -1 -61 -18 -98 -29 -64 -33 -44 -21 93 9 96 11 103 57 174 l47 73
-5 225 c-6 215 -25 422 -49 520 -6 25 -31 86 -54 137 -74 156 -104 244 -119
346 -15 96 -22 41 -20 -150 3 -244 -8 -538 -25 -660 -12 -86 -11 -110 16 -328
16 -129 32 -235 37 -235 11 0 8 76 -7 175 -35 226 -38 284 -22 425 8 74 18
223 21 330 6 162 19 314 24 261 0 -7 25 -65 55 -130 30 -64 61 -138 69 -166
25 -85 49 -320 54 -537 l6 -207 -35 -49 c-55 -75 -58 -84 -73 -214 -12 -108
-12 -125 1 -145 17 -26 25 -28 43 -10 11 10 12 5 7 -28 -18 -114 -19 -152 -3
-158 9 -3 21 1 27 9 7 8 19 14 26 14 26 0 104 42 104 55 0 8 9 17 21 20 24 8
54 73 76 165 11 48 14 99 10 195 -3 93 1 172 14 276 28 225 42 436 37 571 -5
114 -9 135 -57 288 -59 185 -114 312 -302 695 -20 40 -79 115 -106 132 -14 10
-47 18 -72 19 -42 1 -46 3 -44 25 1 13 2 63 3 112 2 90 9 105 28 62 11 -25 39
-37 29 -12 -14 32 -47 114 -53 132 -5 16 -11 7 -24 -38 -10 -32 -25 -69 -34
-82 -13 -19 -13 -25 -3 -25 7 0 19 6 26 13 11 10 13 -5 7 -88 -3 -59 -11 -104
-18 -111 -17 -15 -105 -44 -135 -44 -21 0 -23 4 -17 23 3 12 12 33 19 47 59
117 78 356 36 459 -38 94 -75 137 -145 171 -77 36 -162 39 -241 8z m183 -9
c85 -21 158 -96 188 -193 17 -57 19 -191 5 -276 -17 -101 -67 -213 -117 -263
-60 -59 -143 -86 -205 -68 -126 38 -249 259 -249 448 0 57 45 194 80 242 72
98 180 138 298 110z"/>
</g>
</svg>
