<?xml version="1.0" standalone="no"?>
<!DOCTYPE svg PUBLIC "-//W3C//DTD SVG 20010904//EN"
 "http://www.w3.org/TR/2001/REC-SVG-20010904/DTD/svg10.dtd">
<svg version="1.0" xmlns="http://www.w3.org/2000/svg"
 width="500.000000pt" height="356.000000pt" viewBox="0 0 500.000000 356.000000"
 preserveAspectRatio="xMidYMid meet">
<metadata>
Created by potrace 1.16, written by Peter Selinger 2001-2019
</metadata>
<g transform="translate(0.000000,356.000000) scale(0.100000,-0.100000)"
fill="#000000" stroke="none">
<path d="M1585 3531 c-66 -31 -133 -93 -171 -159 -33 -56 -64 -168 -64 -230 0
-97 36 -241 79 -314 65 -110 13 -230 -116 -267 -117 -34 -170 -53 -208 -75
-47 -28 -129 -112 -171 -176 -16 -25 -32 -46 -36 -48 -5 -2 -8 -9 -8 -16 0 -6
-8 -19 -17 -27 -10 -9 -26 -31 -36 -50 l-19 -33 -48 51 c-27 29 -67 64 -90 78
-47 30 -138 51 -154 35 -14 -14 -4 -20 46 -31 65 -15 121 -45 160 -87 62 -67
63 -72 23 -151 -19 -38 -51 -112 -70 -163 -46 -120 -76 -181 -112 -221 -10
-13 -46 -68 -80 -122 -54 -91 -102 -204 -163 -384 -11 -35 -30 -82 -41 -104
-10 -23 -19 -45 -19 -50 0 -5 -6 -23 -14 -40 -44 -103 -66 -183 -76 -278 -4
-36 -9 -70 -13 -75 -3 -6 -15 -44 -26 -86 -16 -63 -18 -91 -12 -162 6 -61 14
-92 26 -106 10 -11 21 -37 24 -57 5 -29 17 -46 59 -80 51 -42 55 -43 125 -43
44 0 83 -6 101 -15 55 -29 101 -12 90 32 -4 16 1 24 23 35 62 32 97 54 113 69
10 9 24 21 32 25 8 5 66 95 130 199 149 245 183 296 191 288 14 -13 6 -58 -27
-157 -33 -99 -60 -215 -52 -224 11 -10 24 11 30 50 4 24 22 92 42 151 19 59
40 142 46 184 10 65 17 80 47 112 85 87 220 256 273 343 18 29 47 69 64 88 17
19 71 80 119 135 48 55 104 118 124 141 20 22 57 65 83 95 26 30 59 68 73 84
14 17 51 63 81 103 51 67 59 73 87 70 l32 -3 0 -65 c0 -61 -12 -250 -36 -565
-6 -77 -20 -176 -31 -220 -33 -127 -33 -171 -4 -256 25 -74 42 -174 53 -321 4
-61 9 -78 21 -78 29 0 1 266 -44 412 -30 95 -30 97 1 212 14 52 25 111 25 131
0 21 4 76 10 124 9 85 28 346 37 531 3 52 7 97 9 99 4 4 99 -12 158 -28 44
-11 58 -7 50 13 -6 15 -28 21 -140 38 l-72 11 -5 56 c-3 31 -8 70 -12 87 -3
17 -1 44 5 59 30 79 29 253 -2 291 -55 68 -109 112 -163 132 -70 27 -100 47
-91 61 4 6 21 5 48 -5 22 -8 72 -17 109 -20 61 -6 72 -4 102 16 47 32 76 106
101 263 30 176 35 250 26 342 -10 104 -22 148 -50 190 -11 17 -25 39 -32 49
-25 38 -64 67 -134 101 -65 32 -78 35 -155 34 l-84 -2 60 -7 c68 -9 152 -39
207 -72 52 -33 116 -115 134 -173 25 -80 29 -227 10 -377 -27 -205 -59 -298
-113 -323 -31 -15 -40 -15 -139 5 -114 23 -134 22 -134 -10 0 -30 51 -72 117
-97 63 -25 97 -50 143 -108 28 -35 30 -43 30 -125 0 -68 -7 -110 -31 -190 -33
-111 -63 -179 -82 -184 -105 -27 -252 -94 -361 -163 -69 -45 -73 -44 -51 10
12 29 -21 20 -37 -10 -7 -16 -30 -54 -51 -85 -52 -80 -48 -95 16 -61 18 9 61
19 97 22 56 5 65 9 65 26 0 21 -6 22 -67 10 -21 -4 -38 -3 -38 1 0 23 316 194
358 194 10 0 23 5 30 12 9 9 12 9 12 -1 0 -12 -63 -97 -117 -157 -15 -17 -50
-58 -78 -90 -55 -64 -106 -122 -206 -235 -36 -41 -79 -90 -95 -109 -16 -19
-32 -36 -36 -38 -5 -2 -8 -10 -8 -17 0 -7 -3 -15 -7 -17 -5 -1 -29 -34 -55
-73 -26 -38 -55 -79 -65 -90 -10 -11 -26 -30 -34 -42 -9 -13 -47 -58 -86 -100
-104 -116 -133 -150 -133 -157 0 -3 -37 -64 -83 -136 -45 -72 -89 -144 -98
-160 -9 -16 -24 -41 -35 -57 -28 -41 -37 -56 -61 -101 -21 -38 -70 -82 -91
-82 -5 0 -15 -6 -21 -14 -18 -22 -118 -66 -175 -78 -122 -24 -142 -22 -201 25
-5 4 -19 14 -30 22 -33 23 -8 29 32 7 56 -28 96 -35 143 -22 36 10 41 14 38
37 -4 33 -19 40 -92 48 -49 6 -65 13 -98 43 -27 26 -41 48 -45 74 -8 50 9 49
38 -2 29 -51 102 -90 171 -90 43 0 48 3 54 26 8 31 1 38 -51 54 -22 7 -50 18
-62 26 -20 13 -73 110 -73 134 0 24 25 2 51 -46 44 -82 157 -122 200 -72 27
34 23 46 -18 53 -21 3 -45 10 -53 14 -18 9 -74 121 -64 130 3 3 11 -2 18 -13
43 -71 94 -96 200 -96 49 0 57 3 85 35 43 50 64 94 120 257 63 185 72 206 99
251 12 21 22 42 22 47 0 8 38 70 58 95 4 6 22 30 39 55 18 25 58 72 89 105 80
84 115 143 162 270 67 182 115 289 196 439 14 27 26 55 26 62 0 28 -28 13 -45
-23 -9 -21 -39 -81 -65 -133 -64 -128 -107 -230 -162 -385 -28 -81 -99 -188
-113 -173 -3 3 -1 64 6 136 9 98 9 148 0 206 -6 42 -11 133 -11 201 0 104 -2
125 -15 125 -12 0 -15 -13 -15 -61 0 -55 -7 -75 -71 -208 -39 -80 -80 -166
-92 -191 -12 -25 -25 -49 -30 -55 -51 -68 -133 -172 -142 -181 -5 -6 -23 -28
-40 -49 -16 -21 -36 -44 -42 -51 -7 -7 -13 -17 -13 -22 0 -6 -26 -45 -57 -88
-31 -44 -79 -113 -107 -154 -27 -41 -53 -77 -57 -80 -3 -3 -25 -41 -48 -85
-43 -85 -51 -131 -27 -175 8 -13 12 -38 9 -55 -3 -21 2 -45 16 -71 12 -21 21
-44 21 -50 0 -18 34 -43 68 -50 37 -8 33 -24 -6 -24 -41 1 -93 32 -111 65 -58
108 -101 124 -101 38 0 -29 44 -126 65 -143 8 -6 35 -20 62 -30 64 -24 67 -39
6 -30 -74 12 -102 30 -139 87 -37 59 -55 65 -72 27 -14 -30 -7 -66 24 -115 30
-49 77 -75 146 -84 68 -8 82 -21 36 -33 -37 -10 -77 1 -148 40 -92 51 -115
169 -66 339 13 46 27 112 30 146 6 56 66 250 101 328 29 65 44 104 75 195 53
159 148 342 237 455 21 26 64 118 88 185 37 104 95 222 107 218 20 -7 66 -188
49 -188 -5 0 -14 7 -21 15 -15 19 -40 20 -40 2 0 -8 11 -24 25 -37 14 -13 35
-43 47 -67 12 -24 24 -43 27 -43 4 0 12 21 19 48 7 26 17 65 23 87 5 21 14 44
20 51 6 7 4 16 -6 24 -13 11 -17 7 -30 -24 -8 -20 -19 -36 -24 -36 -4 0 -11
23 -14 52 -4 28 -11 56 -17 62 -5 5 -10 20 -10 32 0 13 -5 26 -10 29 -18 11
-10 55 17 98 15 23 30 44 33 47 3 3 23 32 45 65 49 73 139 166 186 191 49 26
129 54 156 54 23 0 126 51 147 73 40 43 51 73 51 147 -1 62 -5 82 -26 115 -57
93 -91 267 -71 365 35 168 152 290 314 325 l63 13 -60 1 c-46 1 -74 -5 -120
-28z m-480 -1951 c-2 -88 -13 -230 -20 -266 -3 -11 -16 -33 -30 -50 -30 -33
-104 -137 -122 -171 -6 -12 -18 -35 -27 -50 -8 -15 -22 -46 -32 -68 -9 -22
-23 -54 -30 -72 -8 -17 -14 -38 -14 -47 0 -9 -4 -24 -9 -34 -5 -9 -26 -68 -46
-130 -36 -114 -77 -186 -118 -209 -37 -20 -55 -16 -59 15 -3 23 -8 27 -38 28
-77 2 -88 5 -121 37 -19 17 -43 50 -53 72 -18 38 -18 41 -2 90 17 47 65 132
90 158 6 7 33 46 58 87 26 41 58 87 72 102 15 15 26 32 26 38 0 5 4 10 9 10 5
0 13 10 17 23 4 12 21 38 38 58 17 19 44 52 59 72 16 20 39 49 53 64 48 56 95
116 106 137 6 12 14 23 17 26 8 7 111 217 111 227 0 4 10 24 22 43 l21 35 12
-70 c7 -38 11 -108 10 -155z"/>
</g>
</svg>
