<?xml version="1.0" standalone="no"?>
<!DOCTYPE svg PUBLIC "-//W3C//DTD SVG 20010904//EN"
 "http://www.w3.org/TR/2001/REC-SVG-20010904/DTD/svg10.dtd">
<svg version="1.0" xmlns="http://www.w3.org/2000/svg"
 width="500.000000pt" height="370.000000pt" viewBox="0 0 500.000000 370.000000"
 preserveAspectRatio="xMidYMid meet">
<metadata>
Created by potrace 1.16, written by Peter Selinger 2001-2019
</metadata>
<g transform="translate(0.000000,370.000000) scale(0.100000,-0.100000)"
fill="#000000" stroke="none">
<path d="M1545 3290 c-33 -4 -79 -14 -103 -23 -133 -47 -269 -203 -302 -345
-21 -91 -1 -206 56 -329 47 -100 51 -134 25 -207 -38 -108 -106 -156 -266
-186 -61 -11 -125 -28 -144 -38 -61 -31 -142 -133 -215 -272 -101 -195 -101
-208 18 -675 82 -319 96 -435 78 -661 -6 -82 -20 -194 -31 -250 -29 -145 -38
-268 -20 -262 10 3 16 30 21 89 3 46 13 118 21 159 42 204 54 426 33 585 -8
61 -47 238 -87 395 -66 258 -73 295 -73 385 -1 97 0 103 40 186 43 88 122 210
158 243 61 54 84 65 171 81 151 28 214 57 275 129 45 53 61 97 61 168 0 57 -5
77 -39 145 -86 170 -81 320 14 459 63 92 152 155 268 189 108 32 330 6 422
-49 102 -62 143 -110 168 -195 36 -122 13 -256 -67 -388 -34 -55 -86 -163
-121 -248 -21 -51 -67 -98 -116 -120 -36 -16 -43 -16 -111 -1 -76 17 -89 16
-70 -8 9 -10 9 -20 0 -40 -12 -25 -16 -26 -93 -26 -249 0 -539 -37 -669 -84
-79 -29 -87 -34 -87 -47 0 -10 25 -6 65 11 44 18 112 39 145 44 19 3 51 8 70
11 177 30 248 34 605 30 307 -3 381 -1 435 11 255 60 221 57 507 44 143 -7
266 -10 271 -6 6 3 60 7 122 7 62 1 133 7 159 14 123 35 259 93 395 171 82 46
151 82 154 79 3 -3 -25 -36 -62 -73 -84 -84 -90 -94 -82 -144 5 -31 2 -48 -15
-74 -14 -24 -20 -45 -16 -67 3 -21 -2 -44 -15 -69 -25 -44 -19 -64 22 -73 23
-5 46 1 96 24 74 34 92 37 118 18 18 -13 17 -15 -10 -40 -16 -15 -34 -27 -40
-27 -6 0 -35 -19 -65 -42 l-53 -43 -111 0 c-111 0 -111 0 -200 44 -50 24 -100
48 -112 54 -23 10 -109 6 -246 -13 -49 -6 -91 -10 -93 -7 -6 6 225 128 299
156 20 8 37 19 37 24 0 5 -8 6 -17 2 -10 -4 -31 -11 -46 -16 -39 -11 -229
-106 -302 -150 -33 -20 -76 -41 -95 -47 -19 -7 -91 -30 -160 -52 -210 -69
-297 -88 -481 -104 -96 -9 -255 -23 -354 -32 -99 -9 -209 -22 -245 -30 -88
-19 -180 -47 -180 -56 0 -16 22 -18 55 -3 66 27 473 86 507 72 26 -9 31 -126
13 -312 -33 -363 -56 -690 -56 -800 0 -71 10 -171 25 -267 14 -84 28 -179 31
-211 4 -31 11 -57 16 -57 19 0 11 78 -42 410 -11 71 -4 343 12 450 6 36 14
150 19 254 7 137 13 194 24 211 26 39 375 153 592 194 61 11 135 31 165 44 77
34 236 84 429 135 270 72 282 75 401 76 l116 1 54 41 c30 23 65 47 79 54 41
21 70 52 70 77 0 16 11 28 38 42 73 37 143 140 144 210 1 60 -25 99 -112 172
-30 26 -75 66 -99 88 -32 32 -50 41 -70 39 -23 -3 -26 -8 -26 -38 l0 -35 -61
3 c-71 4 -102 -14 -84 -48 14 -26 13 -27 -14 -45 -21 -14 -31 -14 -65 -4 -57
17 -93 -2 -89 -45 3 -29 1 -31 -77 -59 -44 -16 -96 -33 -115 -38 -40 -9 -417
-15 -690 -11 -164 3 -194 1 -265 -18 -165 -45 -248 -51 -455 -35 -77 6 -91 10
-88 24 3 13 17 16 75 16 62 1 76 5 113 30 56 39 79 72 132 185 24 52 66 138
94 190 73 135 88 193 81 301 -9 144 -70 238 -197 307 -98 53 -259 79 -395 62z
m2243 -857 c31 -27 67 -57 80 -68 31 -26 62 -87 62 -123 0 -59 -115 -192 -167
-192 -32 0 -81 73 -63 95 16 19 59 19 66 0 7 -18 36 -28 58 -19 23 9 20 24 -4
24 -12 0 -34 9 -49 21 -26 19 -32 20 -56 8 -16 -8 -34 -23 -42 -35 -12 -18
-10 -25 11 -57 13 -19 22 -38 18 -41 -11 -12 -60 -6 -72 9 -7 8 -30 18 -51 21
-49 8 -58 32 -30 78 12 18 21 42 21 53 0 10 6 25 13 32 10 11 10 14 0 18 -33
12 -3 66 34 63 31 -4 36 0 23 16 -11 13 -9 20 18 47 l32 31 30 -29 c39 -37 49
-26 16 17 -17 23 -23 41 -19 56 3 12 7 22 10 22 3 0 30 -21 61 -47z m-588
-535 c49 -24 88 -47 87 -53 -2 -5 -39 -18 -83 -29 -43 -10 -115 -28 -159 -41
-44 -13 -131 -37 -193 -55 -63 -18 -157 -49 -210 -70 -87 -34 -132 -45 -322
-82 -62 -12 -409 -126 -427 -140 -23 -19 -30 1 -21 69 5 43 5 91 -2 132 -6 35
-10 64 -8 66 2 1 75 10 163 19 197 21 271 36 405 79 230 76 310 97 425 112 66
9 140 20 165 25 77 13 88 11 180 -32z"/>
<path d="M2970 2585 c0 -8 14 -22 30 -32 30 -17 30 -18 8 -26 -39 -14 -289
-26 -378 -18 -83 8 -124 0 -84 -16 24 -10 329 -10 414 0 l64 7 -33 -34 c-20
-20 -29 -36 -22 -40 6 -4 19 2 30 13 24 24 104 65 144 75 43 10 27 31 -24 31
-27 1 -64 11 -96 28 -40 19 -53 23 -53 12z"/>
</g>
</svg>
