<?xml version="1.0" standalone="no"?>
<!DOCTYPE svg PUBLIC "-//W3C//DTD SVG 20010904//EN"
 "http://www.w3.org/TR/2001/REC-SVG-20010904/DTD/svg10.dtd">
<svg version="1.0" xmlns="http://www.w3.org/2000/svg"
 width="500.000000pt" height="417.000000pt" viewBox="0 0 500.000000 417.000000"
 preserveAspectRatio="xMidYMid meet">
<metadata>
Created by potrace 1.16, written by Peter Selinger 2001-2019
</metadata>
<g transform="translate(0.000000,417.000000) scale(0.100000,-0.100000)"
fill="#000000" stroke="none">
<path d="M2335 3866 c-87 -19 -124 -35 -177 -73 -90 -65 -139 -134 -219 -305
-50 -106 -49 -534 1 -663 4 -11 15 -45 25 -75 22 -66 76 -179 107 -223 31 -43
36 -135 12 -230 -26 -107 -72 -151 -239 -231 -179 -87 -373 -158 -529 -196
-130 -30 -234 -113 -326 -260 -70 -113 -91 -156 -130 -270 -64 -188 -128 -357
-155 -410 -20 -40 -105 -257 -105 -269 0 -6 -3 -11 -8 -11 -4 0 -13 -19 -20
-42 -7 -22 -26 -69 -41 -102 -30 -63 -61 -171 -61 -209 0 -38 56 -143 89 -167
73 -52 218 -61 606 -40 172 10 227 15 390 40 28 4 147 32 265 62 118 31 251
63 295 72 107 23 182 62 220 114 17 22 33 41 36 41 4 1 18 -16 31 -37 29 -44
138 -102 190 -102 12 0 49 -6 82 -14 67 -16 179 -35 391 -67 120 -19 186 -22
465 -22 356 -1 485 9 570 45 90 38 99 48 108 114 9 69 -1 112 -58 264 -22 58
-40 110 -40 114 0 15 -71 190 -106 261 -19 39 -34 74 -34 78 0 17 -107 242
-158 332 -96 168 -112 197 -112 202 0 10 -90 139 -117 168 -46 50 -104 83
-224 131 -192 77 -203 82 -234 98 -16 9 -36 16 -43 16 -7 0 -20 4 -30 10 -32
17 -153 70 -162 70 -5 0 -10 4 -12 8 -1 4 -17 18 -34 30 -82 57 -151 321 -94
362 35 25 104 198 131 325 40 188 48 244 58 380 12 156 5 229 -29 327 -35 98
-81 176 -145 243 -27 29 -122 89 -165 104 -53 18 -196 22 -265 7z m185 -28
c30 -5 64 -13 75 -18 11 -4 27 -11 35 -14 25 -11 56 -30 72 -46 8 -8 27 -25
42 -38 54 -46 112 -154 147 -272 29 -99 21 -349 -16 -500 -7 -30 -19 -89 -25
-130 -7 -41 -16 -79 -20 -85 -4 -5 -10 -21 -13 -35 -13 -64 -88 -202 -134
-247 -112 -110 -242 -141 -357 -87 -76 36 -181 127 -231 201 -53 76 -97 182
-124 293 -12 47 -26 99 -31 116 -13 41 -13 293 1 368 38 209 122 352 254 433
28 17 82 38 120 47 117 26 132 27 205 14z m-325 -1433 c22 -19 43 -35 47 -35
4 0 13 -6 20 -13 30 -30 103 -50 180 -49 93 0 134 13 194 58 24 19 48 34 53
34 4 0 11 -28 14 -62 10 -111 81 -236 154 -274 21 -10 40 -21 43 -24 12 -12
473 -210 489 -210 17 0 103 -49 142 -81 38 -31 130 -155 146 -197 4 -9 25 -48
48 -87 22 -38 49 -88 60 -110 11 -22 22 -42 25 -45 9 -9 77 -152 110 -230 17
-41 44 -102 60 -135 16 -33 52 -123 80 -200 28 -77 58 -158 67 -180 8 -22 19
-49 23 -60 4 -11 15 -48 24 -83 15 -60 15 -64 -3 -101 -37 -72 -129 -95 -431
-110 -288 -13 -621 9 -925 64 -264 47 -346 73 -373 116 -54 87 -53 82 -43 217
6 70 13 235 15 367 5 236 16 320 39 312 7 -2 17 -47 23 -113 26 -245 49 -360
93 -464 45 -108 52 -117 119 -131 79 -16 181 -6 502 51 212 37 421 46 497 21
45 -15 76 -10 68 12 -7 16 -140 45 -217 47 -23 0 -89 141 -163 350 -38 108
-54 142 -65 135 -6 -4 -10 -86 -10 -223 0 -256 -4 -292 -33 -292 -11 0 -95
-14 -186 -32 -213 -40 -403 -46 -436 -13 -40 40 -88 173 -105 290 -6 44 -16
100 -21 125 -5 25 -13 90 -18 145 -7 89 -18 138 -41 185 -4 9 -24 16 -53 18
-54 4 -63 -7 -72 -89 -3 -30 -10 -74 -16 -99 -5 -25 -18 -126 -29 -225 -24
-207 -49 -307 -84 -330 -18 -12 -71 -17 -262 -21 -131 -3 -284 -2 -339 3
l-100 8 -12 110 c-7 61 -19 170 -27 243 -8 74 -17 136 -20 139 -13 14 -34 -9
-41 -44 -6 -36 -40 -130 -70 -199 -8 -16 -30 -68 -50 -115 -39 -91 -74 -149
-90 -149 -16 0 -167 -49 -192 -62 -13 -6 -23 -15 -23 -20 0 -10 54 -11 64 -1
8 9 72 26 176 49 63 14 103 15 255 8 297 -15 664 -11 731 8 59 15 83 107 124
473 13 120 31 196 44 192 14 -5 10 -542 -5 -677 -17 -154 -52 -219 -143 -263
-32 -16 -81 -32 -109 -38 -29 -5 -81 -16 -117 -24 -36 -9 -92 -22 -125 -29
-33 -8 -94 -23 -135 -35 -218 -61 -360 -79 -702 -86 -364 -8 -418 -4 -459 37
-80 81 -88 168 -28 305 11 24 19 46 19 49 0 3 6 20 14 37 48 107 66 149 66
156 0 5 12 35 26 67 14 33 29 68 34 79 4 11 20 49 35 85 56 132 77 186 90 225
105 317 180 462 290 562 58 53 142 103 174 103 9 0 61 14 116 30 55 17 118 36
140 42 22 6 45 15 51 20 6 4 37 17 68 28 54 18 67 24 146 65 54 28 61 32 120
59 31 15 78 49 106 76 55 54 81 119 91 233 3 31 9 57 12 57 3 0 24 -16 46 -35z
m1191 -1483 c14 -37 30 -80 35 -96 4 -16 20 -47 35 -69 14 -21 22 -43 17 -47
-4 -5 -37 -10 -73 -12 l-65 -3 2 115 c2 63 3 138 3 165 1 59 8 51 46 -53z
m-1941 -74 c4 -62 11 -130 15 -150 5 -25 4 -41 -4 -47 -13 -11 -186 -12 -186
-1 0 4 12 34 26 66 14 33 32 73 39 89 7 17 25 56 39 87 14 31 26 63 26 70 0 8
5 19 12 26 19 19 26 -11 33 -140z"/>
<path d="M2120 1483 l0 -28 -103 -1 c-97 -1 -104 -2 -154 -34 -29 -18 -53 -37
-53 -41 0 -20 22 -16 78 12 48 23 75 30 129 31 37 1 79 -2 92 -6 24 -8 24 -8
-8 -23 -48 -24 -39 -37 22 -29 28 3 67 6 85 6 42 0 44 29 3 62 -15 13 -36 36
-46 51 -23 35 -45 35 -45 0z"/>
<path d="M2606 1461 c-15 -22 -34 -42 -42 -45 -28 -11 -14 -34 24 -41 20 -4
52 -14 70 -22 25 -12 36 -13 45 -4 9 9 5 17 -18 36 -28 22 -29 24 -10 32 11 4
56 7 101 7 60 -1 91 -7 122 -23 51 -26 62 -26 62 -3 0 18 -41 42 -95 56 -32 9
-136 9 -179 1 -36 -7 -38 -7 -27 13 15 28 14 32 -8 32 -10 0 -30 -17 -45 -39z"/>
</g>
</svg>
