<?xml version="1.0" standalone="no"?>
<!DOCTYPE svg PUBLIC "-//W3C//DTD SVG 20010904//EN"
 "http://www.w3.org/TR/2001/REC-SVG-20010904/DTD/svg10.dtd">
<svg version="1.0" xmlns="http://www.w3.org/2000/svg"
 width="350.000000pt" height="294.000000pt" viewBox="0 0 350.000000 294.000000"
 preserveAspectRatio="xMidYMid meet">

<g transform="translate(0.000000,294.000000) scale(0.100000,-0.100000)"
fill="#000000" stroke="none">
<path d="M142 2931 c-61 -10 -74 -28 -33 -42 29 -10 32 -15 26 -38 -19 -73
-16 -122 15 -253 70 -287 183 -585 262 -689 19 -24 67 -93 107 -154 l72 -110
-8 -115 c-4 -63 -7 -161 -6 -217 3 -123 18 -163 62 -163 67 0 74 -18 40 -95
-17 -38 -20 -58 -14 -101 6 -52 6 -53 -22 -60 -90 -20 -114 -46 -98 -110 9
-34 15 -40 57 -53 27 -8 51 -11 55 -8 10 10 -2 19 -39 26 -23 5 -37 16 -47 35
-20 43 -3 71 55 85 58 15 67 6 59 -59 -3 -25 -8 -112 -11 -195 -5 -117 -3
-163 9 -210 8 -33 18 -78 22 -101 6 -38 4 -42 -22 -52 -15 -6 -62 -19 -103
-27 -41 -9 -99 -21 -128 -27 -50 -10 -52 -13 -63 -52 -6 -22 -15 -55 -20 -72
-13 -44 -11 -74 5 -74 9 0 12 7 9 19 -9 34 14 61 52 61 39 0 70 -34 59 -65 -5
-13 -3 -16 7 -13 23 8 23 38 0 69 -12 16 -19 34 -16 39 8 12 122 13 129 1 3
-4 -3 -25 -14 -45 -19 -39 -17 -66 5 -66 8 0 11 8 8 19 -12 47 51 86 97 61 18
-9 21 -19 18 -46 -3 -27 -1 -34 14 -34 12 0 19 11 24 35 8 45 1 94 -42 282
-37 167 -43 266 -23 425 9 72 8 101 -6 167 -19 93 -9 149 33 182 50 39 147 17
177 -40 20 -39 20 -144 1 -261 -14 -85 -14 -102 -1 -150 21 -78 19 -169 -5
-238 -43 -124 -64 -305 -44 -379 7 -26 24 -31 24 -7 0 14 2 14 22 0 75 -53
163 29 112 103 -16 22 -16 23 5 17 11 -3 31 -9 42 -12 19 -5 21 -11 16 -48 -3
-23 -9 -50 -13 -59 -3 -9 -2 -17 4 -17 25 0 35 75 29 220 -5 126 -9 155 -31
210 -30 74 -33 132 -9 207 14 46 15 62 5 111 -33 162 -24 266 30 321 25 26 38
31 75 31 35 0 50 -6 73 -28 35 -35 54 -114 39 -163 -6 -22 -8 -104 -4 -224 7
-204 3 -237 -50 -434 -25 -93 -31 -160 -19 -220 6 -27 10 -31 40 -31 28 0 35
4 40 26 4 14 1 37 -5 51 l-12 25 48 -7 c26 -4 48 -8 48 -8 0 -1 5 -12 12 -24
10 -17 9 -24 -2 -33 -19 -16 -19 -30 0 -30 8 0 15 6 15 14 0 33 65 36 93 4 10
-11 19 -19 20 -17 1 2 1 34 -1 70 l-4 66 -61 18 c-34 10 -92 27 -129 37 -38
11 -68 25 -68 30 0 6 12 54 28 107 24 86 27 112 27 252 l0 155 45 15 45 14 3
53 c4 63 -8 82 -52 82 -32 0 -32 0 -32 53 1 31 -6 66 -16 86 -10 19 -18 54
-18 78 0 37 4 45 24 53 13 5 26 17 29 27 10 38 7 156 -8 363 -37 523 -41 538
-144 550 -39 4 -47 9 -51 30 -12 60 -88 179 -215 340 -58 74 -230 276 -261
306 -43 43 -184 154 -195 154 -15 0 39 -51 110 -105 60 -45 194 -196 327 -365
165 -210 200 -273 235 -413 44 -174 129 -747 129 -864 l0 -80 -68 5 c-66 4
-70 3 -96 -24 -42 -44 -56 -79 -63 -149 l-6 -65 -32 0 -33 0 -7 79 c-8 88 -28
132 -73 155 -33 17 -85 22 -122 12 -24 -7 -26 -4 -37 46 -7 29 -22 113 -33
186 -31 211 -61 285 -189 475 -60 89 -123 190 -139 223 -63 126 -212 618 -212
700 0 14 5 45 11 70 10 37 15 44 35 44 28 0 29 -7 9 -34 -24 -31 -18 -69 29
-195 86 -231 186 -401 334 -569 36 -40 83 -82 105 -93 81 -42 186 -16 221 54
16 34 17 44 6 104 -28 148 -267 549 -409 688 -50 48 -53 49 -114 51 -70 2
-174 13 -197 21 -21 7 14 21 60 23 19 1 44 5 55 10 25 11 -79 11 -143 1z m292
-94 c29 -19 84 -79 128 -137 41 -55 188 -284 188 -293 0 -4 -18 3 -41 15 -121
63 -231 3 -248 -134 l-6 -53 -59 95 c-64 103 -100 177 -152 315 -46 123 -50
147 -29 183 l18 29 89 -2 c58 -2 97 -8 112 -18z m288 -448 c44 -28 108 -124
132 -193 9 -27 16 -74 16 -103 0 -45 -4 -58 -26 -80 l-27 -27 -24 42 c-14 23
-29 42 -34 42 -14 0 -11 -8 12 -39 26 -36 18 -51 -28 -51 -54 0 -98 26 -162
97 -97 105 -120 181 -83 267 22 49 35 57 51 29 5 -10 13 -15 17 -11 4 4 1 14
-5 22 -23 27 -2 38 63 34 43 -3 72 -11 98 -29z m476 -310 c54 -19 63 -60 87
-402 19 -269 20 -487 1 -487 -9 0 -15 23 -20 83 -3 45 -13 125 -21 177 -8 52
-24 158 -35 235 -12 77 -32 196 -46 265 -13 69 -24 128 -24 133 0 10 22 9 58
-4z m-564 -581 c9 -40 23 -116 31 -168 8 -52 17 -110 21 -127 6 -32 5 -33 -25
-33 -22 0 -35 7 -48 27 -15 22 -17 50 -16 189 1 144 5 184 18 184 1 0 10 -33
19 -72z m733 -634 c3 -9 2 -32 -3 -52 -7 -27 -16 -39 -36 -46 -15 -5 -30 -7
-33 -4 -11 11 -7 88 5 103 17 20 59 19 67 -1z m-343 -26 c3 -13 6 -36 6 -51 0
-28 -1 -28 -52 -25 -50 3 -53 4 -50 28 7 66 10 70 51 70 32 0 40 -4 45 -22z
m-9 -123 c0 -15 -8 -21 -34 -23 -38 -4 -57 9 -47 33 4 12 16 15 43 13 30 -2
38 -7 38 -23z m35 -9 c0 -31 -10 -57 -19 -52 -10 7 -1 76 10 76 5 0 9 -11 9
-24z m-47 -53 c3 -10 4 -43 4 -73 -2 -52 -4 -55 -30 -58 -17 -2 -27 2 -28 10
-3 26 3 123 8 131 8 14 42 7 46 -10z m17 -172 c15 -30 14 -31 -35 -31 -37 0
-45 3 -45 18 0 25 9 32 41 32 18 0 32 -7 39 -19z m-8 -127 l-4 -71 36 -21 c33
-19 36 -25 36 -65 0 -24 -3 -46 -6 -49 -3 -3 -27 0 -53 7 -26 7 -71 10 -99 7
-57 -5 -58 -4 -46 56 4 18 14 34 25 37 15 5 19 16 19 59 0 30 3 68 6 85 6 30
9 32 48 29 l41 -3 -3 -71z m42 57 c13 -20 23 -131 12 -131 -29 1 -36 18 -34
78 2 58 9 74 22 53z m-323 -217 c4 -21 5 -41 2 -44 -2 -3 -65 -7 -139 -8 -107
-3 -134 -7 -134 -18 0 -8 -10 -14 -24 -14 -30 0 -36 8 -25 37 6 17 23 25 86
38 43 9 107 25 143 35 36 10 69 17 75 16 5 -2 13 -20 16 -42z m575 -23 c32
-10 80 -24 106 -31 52 -14 73 -32 64 -55 -9 -23 -77 -20 -83 4 -5 19 -46 31
-109 31 -42 0 -68 21 -60 48 9 27 8 27 82 3z m-413 -57 c-9 -15 -19 -21 -21
-15 -6 19 6 41 23 41 14 0 13 -3 -2 -26z m-150 -6 c4 -12 5 -24 3 -26 -7 -7
-36 30 -31 39 10 16 22 10 28 -13z m248 2 c19 -11 25 -45 11 -67 -11 -18 -58
-26 -81 -13 -40 21 -17 90 30 90 11 0 29 -5 40 -10z m269 -40 c12 -22 5 -60
-10 -60 -13 0 -30 34 -30 59 0 27 26 27 40 1z"/>
<path d="M307 2734 c15 -20 29 -32 31 -26 5 16 -28 62 -45 62 -10 0 -6 -11 14
-36z"/>
<path d="M370 2654 c0 -11 41 -64 50 -64 5 0 0 16 -11 35 -18 31 -39 46 -39
29z"/>
<path d="M451 2530 c-1 -8 8 -26 19 -40 15 -19 20 -21 20 -9 0 9 -9 27 -20 40
-13 17 -19 19 -19 9z"/>
<path d="M600 2303 c1 -13 40 -56 46 -50 7 7 -25 57 -37 57 -5 0 -9 -3 -9 -7z"/>
<path d="M670 2200 c0 -8 11 -28 25 -45 15 -19 24 -24 25 -15 0 8 -11 29 -25
45 -15 19 -24 24 -25 15z"/>
<path d="M817 1933 c10 -26 35 -64 40 -60 6 7 -29 77 -39 77 -4 0 -4 -8 -1
-17z"/>
<path d="M869 1805 c-7 -6 12 -70 24 -81 11 -12 7 29 -6 59 -7 16 -15 26 -18
22z"/>
<path d="M910 1646 c0 -21 23 -96 30 -96 10 0 -8 82 -21 95 -5 5 -9 6 -9 1z"/>
<path d="M940 1490 c0 -37 14 -90 22 -90 12 0 0 80 -13 95 -6 5 -9 3 -9 -5z"/>
<path d="M960 1291 c0 -22 5 -43 10 -46 6 -4 10 10 10 34 0 22 -4 43 -10 46
-6 4 -10 -10 -10 -34z"/>
<path d="M972 1125 c1 -25 6 -45 10 -45 12 0 10 78 -2 85 -6 4 -9 -12 -8 -40z"/>
<path d="M972 965 c0 -22 4 -35 11 -32 6 2 11 16 11 32 0 16 -5 30 -11 32 -7
3 -11 -10 -11 -32z"/>
</g>
</svg>
