<?xml version="1.0" standalone="no"?>
<!DOCTYPE svg PUBLIC "-//W3C//DTD SVG 20010904//EN"
 "http://www.w3.org/TR/2001/REC-SVG-20010904/DTD/svg10.dtd">
<svg version="1.0" xmlns="http://www.w3.org/2000/svg"
 width="344.000000pt" height="456.000000pt" viewBox="0 0 344.000000 456.000000"
 preserveAspectRatio="xMidYMid meet">

<g transform="translate(0.000000,456.000000) scale(0.100000,-0.100000)"
fill="#000000" stroke="none">
<path d="M1633 4217 c-62 -33 -107 -78 -139 -144 -25 -52 -28 -69 -28 -158 -1
-110 9 -141 71 -227 102 -141 95 -309 -17 -365 -25 -12 -76 -32 -113 -43 -162
-50 -250 -204 -297 -520 -14 -88 -36 -178 -70 -280 -17 -49 -33 -126 -39 -182
-9 -89 -13 -101 -51 -157 -23 -34 -45 -61 -49 -61 -17 0 -107 117 -97 127 2 3
18 -4 34 -16 17 -12 35 -21 41 -21 19 0 12 18 -9 25 -10 3 -39 28 -64 56 -24
27 -49 49 -54 49 -17 0 -25 -83 -12 -128 12 -47 32 -57 30 -14 -3 46 -1 46 37
-9 20 -30 45 -62 55 -73 24 -26 23 -36 -9 -82 -72 -107 -118 -190 -244 -449
-79 -162 -86 -174 -163 -249 -133 -129 -230 -183 -361 -201 -83 -11 -85 -12
-85 -55 0 -21 4 -41 10 -45 24 -15 228 -28 295 -18 59 9 80 7 134 -8 77 -22
132 -17 178 17 32 25 51 68 73 174 7 31 24 72 39 92 14 20 40 54 56 77 38 51
55 52 55 4 0 -36 13 -234 26 -388 3 -38 9 -92 14 -120 15 -78 19 -205 9 -259
-18 -100 -53 -155 -161 -258 l-101 -98 -144 0 c-89 0 -143 -4 -143 -10 0 -9
25 -11 190 -15 30 -1 59 -2 65 -3 5 -1 -16 -20 -48 -43 -61 -44 -67 -57 -39
-82 26 -24 50 -21 118 12 32 16 97 39 143 50 46 11 91 27 100 34 30 26 84 40
135 37 28 -2 483 -4 1010 -4 759 -1 960 2 963 12 4 9 -27 12 -130 12 -73 0
-137 3 -140 6 -4 4 5 20 18 36 36 43 33 85 -10 135 -30 35 -35 48 -35 92 0 44
-3 51 -22 55 -60 12 -459 108 -504 121 -28 8 -57 15 -66 15 -8 0 -38 7 -67 15
l-52 16 2 135 c2 124 0 136 -19 157 -16 17 -21 37 -23 92 -1 39 4 89 10 113
14 50 9 62 -25 62 -27 0 -33 17 -8 27 8 3 20 17 25 32 l10 26 19 -24 c10 -14
16 -35 14 -50 -3 -18 5 -37 27 -64 35 -42 39 -44 69 -19 22 18 22 19 6 50 -19
37 -15 39 26 14 28 -16 30 -16 44 2 20 28 18 41 -10 56 -14 7 -27 19 -30 26
-9 22 44 17 62 -6 13 -16 33 -22 90 -27 69 -6 73 -5 79 16 4 17 13 21 49 21
44 0 48 -4 45 -41 -2 -21 22 -41 41 -34 8 3 18 20 24 38 7 24 16 33 38 37 59
10 57 65 -2 72 l-27 3 1 171 c0 137 3 176 16 195 12 20 14 61 12 259 -4 272 2
312 51 353 40 33 169 202 179 235 5 16 -1 38 -20 75 -15 29 -39 75 -53 102
-15 28 -43 76 -63 107 -36 56 -37 58 -28 115 6 32 10 66 10 76 0 25 -36 57
-65 57 -14 0 -34 -9 -45 -20 -11 -11 -23 -20 -27 -20 -4 0 -45 40 -93 88 -47
49 -104 101 -127 115 -42 26 -197 67 -258 67 -16 0 -35 4 -42 8 -15 10 -33 57
-33 88 0 22 4 24 48 24 83 0 108 43 137 231 l5 37 138 4 c115 3 143 7 172 24
21 12 36 29 38 43 4 27 -27 64 -69 81 -26 11 -27 13 -12 29 15 15 15 16 -1 19
-10 2 -23 -1 -29 -7 -6 -6 -30 -11 -54 -11 -50 0 -55 -13 -13 -35 17 -9 35
-27 40 -40 14 -36 34 -32 27 5 -7 34 0 37 41 13 73 -42 58 -75 -43 -92 -70
-13 -223 -13 -230 -1 -2 4 -7 45 -11 91 -6 88 -31 173 -64 219 -25 35 -107 88
-148 96 -18 4 -35 11 -38 15 -3 5 -44 9 -92 9 -70 -1 -95 -5 -129 -23z m235
-19 c89 -26 150 -76 180 -146 28 -64 42 -236 21 -244 -8 -3 -52 -1 -98 3 -47
5 -86 7 -89 5 -14 -15 20 -25 103 -31 109 -8 104 0 79 -121 -23 -112 -33 -124
-104 -124 -67 0 -73 -9 -59 -87 11 -61 45 -93 99 -93 57 0 178 -28 227 -52 74
-37 322 -307 391 -427 79 -136 121 -217 121 -237 1 -29 -113 -178 -189 -247
-35 -31 -88 -73 -119 -94 -31 -20 -81 -53 -111 -73 -30 -21 -68 -42 -85 -47
-17 -6 -44 -29 -63 -56 -32 -45 -33 -47 -17 -76 13 -26 13 -31 1 -31 -8 0 -24
12 -35 28 l-20 27 -1 -27 c0 -33 -15 -36 -30 -8 -14 26 -33 26 -25 0 4 -14 2
-20 -9 -20 -8 0 -18 9 -21 20 -8 26 -25 26 -25 -1 0 -12 -5 -19 -12 -16 -13 4
-14 17 -7 67 4 23 1 25 -38 28 -24 2 -43 6 -43 10 0 4 27 13 61 19 33 6 72 20
86 30 14 10 60 36 101 58 57 30 88 54 122 97 25 31 68 85 95 119 28 35 79 93
114 130 34 37 61 72 60 78 -2 5 -29 38 -59 72 -30 34 -91 109 -135 167 -44 58
-85 107 -91 109 -23 8 -44 -519 -24 -610 12 -58 12 -59 -17 -89 -15 -17 -48
-39 -73 -50 -25 -11 -65 -32 -90 -48 -40 -26 -75 -37 -177 -56 -13 -2 -23 -11
-23 -19 0 -26 -106 -34 -183 -14 -57 15 -62 24 -82 144 -7 44 -25 118 -38 165
-52 179 -88 360 -90 452 -2 71 -17 70 -34 -3 -33 -131 -117 -363 -150 -412
-54 -80 -60 -96 -68 -177 -12 -124 -23 -170 -72 -293 -46 -117 -46 -118 -30
-153 19 -38 24 -170 7 -159 -5 3 -10 24 -10 45 0 72 -26 61 -54 -22 -13 -38
-17 -73 -14 -107 7 -72 -6 -54 -21 29 -16 85 -37 96 -26 13 4 -31 9 -63 12
-72 4 -12 3 -13 -6 -5 -6 6 -17 38 -24 72 -16 80 -27 88 -28 21 -1 -44 -2 -49
-8 -24 -4 17 -13 40 -20 53 -15 27 -11 42 43 155 26 55 46 87 56 86 30 -3 33
1 17 19 -15 16 -16 34 -7 158 10 147 37 342 50 359 7 10 26 71 54 175 8 30 17
82 21 115 11 97 53 255 87 323 43 87 111 155 174 172 64 17 186 73 201 91 6 8
19 40 28 71 27 95 7 188 -62 286 -24 34 -51 78 -59 97 -17 42 -19 178 -2 226
36 105 107 174 194 188 78 13 95 12 172 -11z m708 -1093 c6 -25 -2 -95 -12
-95 -11 0 -63 66 -64 81 -1 43 66 55 76 14z m-252 -231 c57 -74 59 -79 57
-132 -1 -30 -3 -58 -6 -62 -2 -3 -5 -44 -6 -91 -1 -90 -3 -94 -78 -179 -26
-29 -33 -32 -41 -20 -17 26 -8 560 9 560 4 0 33 -34 65 -76z m-837 -339 c53
-211 87 -374 80 -381 -8 -9 -340 47 -348 58 -3 4 -2 40 2 79 7 58 16 84 48
138 47 77 80 153 116 270 14 46 29 89 33 95 3 6 13 -18 20 -54 7 -36 29 -128
49 -205z m965 183 c52 -59 52 -61 0 -117 -26 -28 -51 -51 -56 -51 -8 0 0 148
10 183 7 23 12 22 46 -15z m55 -511 c-4 -62 -2 -173 3 -246 11 -146 8 -161
-40 -161 -20 0 -34 11 -58 44 -18 24 -32 47 -32 51 0 3 -12 32 -26 63 -31 66
-34 133 -10 215 14 49 21 57 83 99 37 26 72 47 77 47 5 1 6 -47 3 -112z m-187
-31 c0 -8 -4 -18 -10 -21 -5 -3 -10 3 -10 14 0 12 5 21 10 21 6 0 10 -6 10
-14z m-954 -21 c60 -8 122 -20 138 -25 16 -6 42 -10 57 -10 15 0 40 -5 56 -12
25 -10 18 -12 -74 -23 -123 -14 -143 -27 -143 -91 0 -54 16 -64 98 -64 58 0
60 1 71 30 6 18 17 30 28 31 10 0 72 6 138 13 66 7 123 11 126 7 9 -9 33 -387
26 -405 -9 -22 -51 -20 -150 5 -101 25 -327 97 -342 108 -5 5 -21 11 -35 14
-14 3 -62 26 -107 50 -69 37 -84 42 -94 31 -16 -20 -29 -17 -29 5 0 11 -4 23
-10 26 -19 12 -10 62 29 151 21 49 42 105 46 124 13 59 5 58 171 35z m909 -5
c-3 -5 -15 -10 -26 -10 -11 0 -17 5 -14 10 3 6 15 10 26 10 11 0 17 -4 14 -10z
m-1293 -78 c-5 -68 -20 -79 -48 -36 -13 19 -11 25 17 63 17 24 32 41 33 39 2
-1 1 -31 -2 -66z m1264 33 c9 -21 -14 -45 -42 -45 -45 0 -21 59 24 60 7 0 15
-7 18 -15z m60 -76 c7 -39 18 -77 24 -84 6 -7 17 -39 26 -71 27 -103 -12 -211
-91 -248 -24 -12 -63 -16 -142 -16 l-110 0 -6 182 c-4 136 -3 184 6 190 7 4
46 8 87 8 67 0 79 3 123 33 32 21 50 41 54 60 8 39 13 29 29 -54z m-364 49
c-2 -7 -6 -16 -10 -19 -9 -9 -254 -39 -310 -39 -53 0 -82 -14 -82 -40 0 -18
-7 -20 -55 -20 l-55 0 0 39 0 40 53 10 c28 5 81 12 117 16 36 4 110 12 165 18
125 15 181 13 177 -5z m-1004 -83 c12 -14 22 -32 22 -41 0 -18 -87 -211 -106
-234 -23 -29 -36 -105 -33 -199 3 -89 1 -99 -23 -136 -14 -22 -40 -55 -57 -73
-44 -47 -66 -95 -90 -192 -12 -48 -30 -94 -43 -107 -29 -31 -90 -38 -164 -19
-46 12 -80 14 -148 8 -77 -7 -130 -4 -254 14 -40 6 -41 37 -2 42 14 1 63 12
109 24 107 28 204 89 316 202 81 80 84 86 198 316 123 250 223 420 246 420 4
0 17 -11 29 -25z m1006 19 c26 -10 35 -69 40 -264 6 -248 -5 -309 -55 -310
-15 0 -17 14 -14 118 2 107 -2 194 -20 374 -8 86 1 101 49 82z m488 -231 c16
-14 18 -34 18 -188 0 -197 -1 -199 -74 -189 l-46 7 25 23 c22 20 25 32 25 88
0 61 -2 67 -27 83 -16 9 -30 18 -32 19 -1 2 9 18 23 36 14 19 30 57 37 86 11
55 21 62 51 35z m-912 -133 c80 -26 160 -51 179 -55 58 -13 14 -24 -115 -31
-131 -6 -299 -28 -335 -44 -82 -34 -103 -111 -68 -255 28 -119 23 -242 -15
-337 -14 -35 -26 -67 -26 -71 0 -3 -5 -18 -12 -34 -49 -119 -69 -297 -49 -445
9 -69 9 -91 -1 -107 -14 -23 -62 -45 -121 -55 -22 -4 -65 -21 -97 -37 -32 -16
-84 -34 -117 -40 -32 -6 -83 -24 -113 -40 -56 -30 -94 -37 -105 -19 -3 5 11
20 32 34 21 13 97 84 169 158 206 209 217 253 171 646 -9 73 -19 192 -22 265
-4 73 -13 174 -21 224 -17 110 -18 207 -3 234 9 17 14 11 45 -51 38 -74 69
-100 121 -100 48 0 59 14 45 53 -14 38 -16 137 -3 137 5 0 11 -13 14 -29 6
-28 30 -46 48 -35 5 3 9 29 9 57 0 49 17 90 43 108 5 4 53 -14 106 -38 53 -25
161 -67 241 -93z m970 -76 l0 -184 23 0 c28 0 53 -15 39 -24 -6 -3 -22 -7 -37
-8 -15 -2 -29 -7 -30 -13 -2 -5 -7 -23 -11 -40 l-8 -30 -5 40 c-5 35 -9 40
-31 38 -38 -3 -100 8 -100 17 0 5 28 10 63 12 l62 3 3 180 c2 186 5 211 22
200 6 -4 10 -78 10 -191z m-142 -4 c4 -12 5 -42 2 -68 l-5 -47 -136 -9 c-75
-5 -152 -6 -170 -2 l-34 6 5 62 c5 63 5 63 40 69 19 4 93 7 163 8 120 1 128 0
135 -19z m-463 -62 c-10 -80 -22 -88 -156 -98 -63 -5 -150 -14 -194 -20 -44
-6 -107 -10 -140 -8 -59 3 -60 3 -63 35 -4 40 22 91 51 102 12 5 101 14 197
21 96 7 177 14 179 16 2 2 33 4 69 4 l64 0 -7 -52z m-571 -33 c-22 -54 -18
-92 12 -111 24 -16 36 -16 205 1 99 10 182 15 185 12 8 -8 -40 -37 -72 -43
-34 -6 -63 -21 -91 -47 -37 -33 -28 -87 14 -87 31 0 103 55 103 79 0 20 36 71
50 71 5 0 14 -16 20 -35 8 -24 18 -35 31 -35 10 0 19 -7 19 -15 0 -8 -9 -15
-20 -15 -17 0 -20 -7 -20 -39 0 -22 6 -44 15 -51 11 -9 15 -33 15 -92 0 -61
-3 -80 -15 -84 -12 -5 -15 -30 -15 -139 l0 -133 -47 -16 c-77 -27 -140 -44
-277 -76 -109 -26 -266 -69 -315 -88 -12 -4 -13 9 -8 79 5 83 19 130 87 309
29 77 32 95 33 200 0 84 -4 127 -16 159 -35 91 -14 190 45 216 18 8 43 14 55
15 21 0 21 -1 7 -35z m838 -71 c24 -15 -13 -24 -95 -24 -97 0 -135 11 -107 31
15 10 183 4 202 -7z m154 -25 c3 -57 -5 -62 -67 -47 -44 11 -55 17 -57 36 -7
46 3 53 65 50 l58 -3 1 -36z m-393 -11 c-3 -24 -8 -46 -11 -50 -7 -6 -70 -11
-119 -9 -19 1 -23 7 -23 36 0 32 3 35 38 40 20 4 48 10 62 15 52 17 58 14 53
-32z m118 -44 c6 -8 10 -17 7 -20 -10 -9 -57 15 -67 35 -11 19 -9 19 18 10 17
-6 35 -17 42 -25z m86 -18 c21 -19 25 -27 16 -37 -9 -9 -18 -6 -42 10 -31 23
-37 32 -24 44 11 11 21 8 50 -17z m-472 -6 c15 -25 -51 -84 -82 -73 -22 8 -14
31 20 57 34 27 52 32 62 16z m394 -36 c26 -33 27 -64 3 -64 -21 0 -56 55 -48
76 8 21 22 17 45 -12z m-174 1 c0 -5 -10 -11 -22 -13 -16 -2 -23 2 -23 13 0
11 7 15 23 13 12 -2 22 -7 22 -13z m55 -49 c0 -18 -20 -24 -85 -28 -45 -2 -50
0 -53 20 -3 21 0 22 67 22 55 0 71 -3 71 -14z m-22 -123 l3 -73 -44 0 c-50 0
-57 10 -57 88 0 35 4 44 23 52 12 5 33 8 47 7 24 -2 25 -5 28 -74z m26 -112
c8 -12 -18 -21 -64 -21 -21 0 -45 3 -54 6 -31 12 -4 24 54 24 32 0 61 -4 64
-9z m23 -167 c-5 -147 -20 -129 148 -169 61 -15 200 -48 310 -75 110 -27 209
-50 220 -52 12 -2 21 -14 26 -35 7 -37 -1 -43 -68 -43 -36 0 -46 4 -50 20 -4
13 -17 21 -42 25 -20 4 -67 13 -106 21 -38 8 -104 18 -145 24 -41 5 -148 20
-238 33 -150 23 -167 23 -225 10 -153 -36 -372 -82 -507 -107 -108 -20 -110
-21 -110 -46 0 -16 -7 -20 -30 -20 -29 0 -30 1 -30 48 0 47 1 50 38 64 60 25
130 45 247 73 157 36 250 62 325 88 l65 22 3 123 3 122 85 0 86 0 -5 -126z
m-24 -260 c20 -4 37 -12 37 -18 0 -7 -12 -36 -28 -66 l-27 -55 -55 -2 -55 -3
-36 58 c-21 32 -33 61 -28 66 18 20 125 31 192 20z m198 -30 c31 -3 60 -9 66
-12 5 -4 23 -31 39 -59 21 -38 26 -57 19 -67 -40 -54 -48 -71 -47 -98 0 -17
10 -40 21 -52 12 -12 21 -26 21 -30 0 -10 -316 -4 -326 7 -4 4 -2 13 4 19 19
19 15 108 -5 131 -15 16 -16 20 -3 27 9 5 31 40 50 80 34 71 34 71 70 66 19
-3 60 -8 91 -12z m-408 -26 c10 -18 29 -53 43 -78 20 -37 22 -46 11 -55 -35
-26 -52 -104 -28 -128 6 -6 11 -15 11 -19 0 -4 -65 -8 -145 -8 -80 0 -145 3
-145 7 0 3 7 15 16 25 24 26 22 94 -5 121 -11 13 -17 27 -13 33 5 5 14 27 20
50 l12 40 87 21 c117 28 117 28 136 -9z m600 -3 c61 -8 66 -15 45 -60 -10 -22
-17 -26 -47 -23 -30 3 -39 10 -58 43 -26 46 -29 59 -10 52 8 -3 39 -8 70 -12z
m-853 -28 c0 -33 -25 -48 -75 -45 -68 4 -68 28 0 44 68 16 75 16 75 1z m1048
-19 c6 -6 12 -17 12 -24 0 -8 11 -14 26 -14 l25 0 -23 -32 c-28 -41 -31 -107
-5 -135 9 -11 17 -23 17 -26 0 -4 -40 -7 -90 -7 -49 0 -90 3 -90 8 1 4 7 18
15 32 20 34 18 56 -6 104 -19 39 -19 43 -4 80 l16 38 47 -7 c26 -4 53 -12 60
-17z m-1195 -37 c13 -27 13 -31 -4 -50 -28 -30 -34 -74 -15 -112 9 -18 16 -34
16 -36 0 -1 -30 -3 -66 -3 -59 0 -65 2 -59 18 25 57 28 90 13 114 -21 33 -13
86 16 91 62 12 84 7 99 -22z m1355 -22 c56 -19 66 -103 17 -149 -20 -19 -28
-20 -60 -11 -69 19 -88 51 -63 108 26 62 47 73 106 52z m-790 -27 c15 -12 25
-32 29 -58 10 -79 -76 -124 -132 -69 -35 36 -32 70 9 111 38 38 60 42 94 16z
m481 -8 c45 -57 15 -134 -52 -134 -44 0 -75 25 -83 67 -5 27 -1 37 24 63 39
39 82 41 111 4z m-926 5 c47 -25 51 -75 10 -114 -76 -70 -181 28 -108 100 26
27 63 32 98 14z m-265 -21 c34 -34 -3 -118 -52 -118 -34 0 -37 9 -14 40 15 21
19 37 15 59 -6 27 -4 31 16 31 13 0 28 -5 35 -12z"/>
</g>
</svg>
