<?xml version="1.0" standalone="no"?>
<!DOCTYPE svg PUBLIC "-//W3C//DTD SVG 20010904//EN"
 "http://www.w3.org/TR/2001/REC-SVG-20010904/DTD/svg10.dtd">
<svg version="1.0" xmlns="http://www.w3.org/2000/svg"
 width="500.000000pt" height="401.000000pt" viewBox="0 0 500.000000 401.000000"
 preserveAspectRatio="xMidYMid meet">

<g transform="translate(0.000000,401.000000) scale(0.100000,-0.100000)"
fill="#000000" stroke="none">
<path d="M1186 3559 c-61 -15 -133 -58 -160 -98 -35 -52 -63 -162 -69 -271 -9
-165 9 -207 94 -230 30 -8 39 -16 39 -32 0 -34 -66 -158 -123 -230 -91 -116
-148 -244 -222 -500 -45 -157 -50 -211 -35 -406 15 -204 15 -218 -1 -369 -13
-124 -1 -300 28 -403 24 -86 73 -240 93 -295 11 -27 19 -62 20 -77 0 -15 20
-69 45 -120 39 -80 51 -124 88 -306 24 -117 47 -215 50 -219 19 -18 17 17 -8
134 -16 70 -31 151 -36 180 -10 69 -35 144 -75 224 -18 36 -37 91 -43 122 -6
31 -22 87 -36 124 -15 38 -31 79 -35 93 -22 61 -49 185 -66 303 -16 110 -16
137 -6 200 22 125 25 221 12 324 -21 154 -18 303 8 403 40 154 59 214 106 332
48 122 86 190 152 270 39 46 52 69 93 159 29 63 27 85 -9 104 -16 8 -38 15
-48 15 -10 0 -27 10 -38 21 -17 19 -19 37 -18 158 1 211 38 295 152 347 39 18
70 24 121 24 61 0 74 -4 117 -32 27 -18 64 -53 82 -78 33 -43 34 -47 30 -115
-7 -93 -43 -172 -108 -235 -70 -68 -67 -113 18 -228 31 -42 60 -97 77 -147 15
-44 51 -125 79 -180 29 -55 58 -116 66 -135 7 -19 22 -47 32 -62 21 -30 24
-91 5 -106 -7 -6 -86 -48 -175 -95 -206 -106 -222 -119 -222 -186 0 -41 -3
-49 -15 -45 -17 7 -19 -9 -5 -37 15 -26 -4 -24 -24 3 -15 21 -17 21 -12 3 2
-11 14 -44 25 -72 25 -63 14 -72 -12 -10 -21 51 -53 94 -63 85 -3 -4 6 -28 21
-53 38 -65 24 -67 -19 -3 -43 64 -72 98 -81 98 -4 0 -23 -14 -42 -31 -37 -32
-58 -32 -29 0 10 11 30 43 45 73 15 29 36 58 47 63 67 34 114 68 119 85 10 32
127 144 183 176 52 29 65 44 37 44 -9 0 -38 48 -74 121 -33 66 -70 133 -81
149 -11 15 -20 33 -20 39 0 6 -4 11 -10 11 -18 0 -11 -19 43 -118 29 -53 59
-113 67 -132 7 -19 20 -44 27 -55 19 -28 18 -30 -37 -65 -28 -18 -80 -68 -117
-112 -42 -51 -80 -86 -102 -95 -51 -21 -79 -50 -108 -111 -14 -29 -36 -60 -49
-69 -28 -18 -31 -38 -8 -47 26 -10 40 -7 77 18 l35 24 19 -21 c29 -35 59 -79
82 -125 12 -23 23 -42 26 -42 2 0 20 9 39 20 20 10 37 16 40 12 2 -4 7 -32 11
-62 7 -60 -12 -175 -46 -270 -62 -174 -79 -254 -90 -415 -5 -88 -12 -189 -15
-225 -5 -59 -2 -75 34 -171 64 -171 76 -240 62 -356 -22 -185 -24 -223 -8
-223 12 0 17 34 27 167 16 198 11 236 -51 398 -47 123 -47 127 -30 360 6 83
12 156 12 164 0 8 3 11 8 7 4 -4 10 -83 13 -174 6 -157 8 -172 38 -252 18 -47
48 -139 68 -205 31 -109 35 -135 40 -293 4 -127 9 -172 18 -172 17 0 18 101 5
240 -14 144 -28 210 -66 315 -17 50 -37 104 -43 120 -32 91 -40 150 -46 351
l-5 212 30 78 c64 170 85 328 55 414 -8 23 -14 56 -13 74 1 17 -2 63 -6 102
l-8 71 33 27 c18 15 105 64 193 108 164 82 182 95 192 138 3 14 13 40 22 58
20 39 29 21 -111 226 -54 79 -105 165 -113 191 -16 54 -42 100 -96 169 -30 39
-38 57 -38 91 0 36 5 48 34 73 68 59 97 118 116 235 13 84 -7 138 -72 198 -75
69 -155 91 -252 68z m514 -1226 c0 -29 -20 -9 -49 50 -44 88 -39 104 9 27 22
-36 40 -71 40 -77z"/>
<path d="M760 2942 c0 -4 9 -13 20 -20 38 -23 20 -31 -80 -31 -55 0 -113 -4
-128 -7 -104 -24 -236 -84 -214 -98 6 -4 37 7 69 23 75 38 129 50 261 57 l107
5 -27 -21 c-16 -12 -28 -28 -28 -36 0 -19 6 -18 43 10 18 13 49 27 70 31 20 4
37 11 37 16 0 5 -17 17 -38 28 -21 11 -44 27 -51 35 -14 16 -41 22 -41 8z"/>
<path d="M1830 1789 c-58 -16 -143 -32 -190 -35 l-85 -6 28 19 c37 27 25 33
-30 17 -26 -8 -55 -12 -64 -9 -10 3 -20 1 -24 -5 -15 -24 82 -97 113 -85 14 6
13 9 -10 21 -16 8 -28 16 -28 18 0 2 27 4 60 5 114 1 349 54 358 80 5 15 -8
13 -128 -20z"/>
</g>
</svg>
